<svg viewBox="0 0 32 32" xmlns="http://www.w3.org/2000/svg" fill-rule="evenodd" clip-rule="evenodd"
  stroke-linejoin="round" stroke-miterlimit="2">
  <path
    d="M9 9H8a5.004 5.004 0 00-3.536 1.464A5.004 5.004 0 003 14v10c0 1.326.527 2.598 1.464 3.536A5.004 5.004 0 008 29h10a5.004 5.004 0 003.536-1.464A5.004 5.004 0 0023 24v-1h1a5.004 5.004 0 003.536-1.464A5.004 5.004 0 0029 18V8a5.004 5.004 0 00-1.464-3.536A5.004 5.004 0 0024 3H14a5.004 5.004 0 00-3.536 1.464A5.004 5.004 0 009 8v1zm12 5v10c0 .796-.316 1.559-.879 2.121A2.996 2.996 0 0118 27H8a2.996 2.996 0 01-2.121-.879A2.996 2.996 0 015 24V14c0-.796.316-1.559.879-2.121A2.996 2.996 0 018 11h10c.796 0 1.559.316 2.121.879.563.562.879 1.325.879 2.121zm2 7h1c.796 0 1.559-.316 2.121-.879A2.996 2.996 0 0027 18V8c0-.796-.316-1.559-.879-2.121A2.996 2.996 0 0024 5H14c-.796 0-1.559.316-2.121.879A2.996 2.996 0 0011 8v1h7c1.326 0 2.598.527 3.536 1.464A5.004 5.004 0 0123 14v7z" />
</svg>