<svg width="26" height="26" viewBox="0 0 26 26" fill="none" xmlns="http://www.w3.org/2000/svg">
<path d="M18.3333 7H23.6667C24.0203 7 24.3594 7.15804 24.6095 7.43934C24.8595 7.72064 25 8.10218 25 8.5V25L20.556 20.8465C20.3162 20.6226 20.0143 20.5 19.7027 20.5H9C8.64638 20.5 8.30724 20.342 8.05719 20.0607C7.80714 19.7794 7.66667 19.3978 7.66667 19V14.5M18.3333 7V2.5C18.3333 2.10218 18.1929 1.72064 17.9428 1.43934C17.6928 1.15804 17.3536 1 17 1H2.33333C1.97971 1 1.64057 1.15804 1.39052 1.43934C1.14048 1.72064 1 2.10218 1 2.5V19L5.444 14.845C5.684 14.623 5.98533 14.5 6.29733 14.5H7.66667M18.3333 7V13C18.3333 13.3978 18.1929 13.7794 17.9428 14.0607C17.6928 14.342 17.3536 14.5 17 14.5H7.66667" stroke="white" stroke-width="1.2" stroke-linecap="round" stroke-linejoin="round"/>
</svg>
