<svg width="24" height="24" viewBox="0 0 24 24" fill="none" xmlns="http://www.w3.org/2000/svg">
<path d="M11.4853 21.3084L11.5402 21.4H4.6V20C4.6 19.4162 4.96563 18.7824 5.79561 18.1912C6.5399 17.661 7.59464 17.2161 8.86397 16.9333L11.4853 21.3084ZM19.4 21.4H12.4598L12.5147 21.3084L15.136 16.9333C16.4054 17.2161 17.4601 17.661 18.2044 18.1912C19.0344 18.7824 19.4 19.4162 19.4 20V21.4ZM14.993 2.9597L15.337 6.4H12.6V6V5.6H13H13.6V5V4V3.4H13H12.6V3V2.6H14.6C14.8003 2.6 14.9729 2.75477 14.9929 2.95854L14.993 2.9597ZM10.4 6.4H8.66299L9.00702 2.9597L9.00714 2.95854C9.02675 2.75852 9.19593 2.6 9.41 2.6H10.4V3V3.4H10H9.4V4V5V5.6H10H10.4V6V6.4ZM8.6 8.6H15.4V10C15.4 10.9017 15.0418 11.7665 14.4042 12.4042C13.7665 13.0418 12.9017 13.4 12 13.4C11.0983 13.4 10.2335 13.0418 9.59584 12.4042C8.95821 11.7665 8.6 10.9017 8.6 10V8.6Z" stroke="white" stroke-width="1.2"/>
</svg>
