<svg width="24" height="24" viewBox="0 0 24 24" fill="none" xmlns="http://www.w3.org/2000/svg">
<path d="M20.59 12C20.5911 11.473 20.5408 10.9472 20.44 10.43L22.53 9.23L19.66 4.23L17.58 5.43C16.7759 4.74864 15.8541 4.21995 14.86 3.87V1.5H9.14V3.91C8.14587 4.25995 7.22406 4.78864 6.42 5.47L4.34 4.27L1.47 9.27L3.56 10.47C3.35997 11.5071 3.35997 12.5729 3.56 13.61L1.47 14.81L4.34 19.81L6.42 18.61C7.22406 19.2914 8.14587 19.82 9.14 20.17V22.5H14.86V20.09C15.8541 19.74 16.7759 19.2114 17.58 18.53L19.66 19.73L22.53 14.73L20.44 13.53C20.5383 13.0259 20.5885 12.5136 20.59 12Z" stroke="white" stroke-width="1.2" stroke-miterlimit="10"/>
<path d="M12 15.8202C14.1097 15.8202 15.82 14.1099 15.82 12.0002C15.82 9.89045 14.1097 8.18018 12 8.18018C9.89026 8.18018 8.17999 9.89045 8.17999 12.0002C8.17999 14.1099 9.89026 15.8202 12 15.8202Z" stroke="white" stroke-width="1.2" stroke-miterlimit="10"/>
</svg>
