<svg viewBox="0 0 24 24" xmlns="http://www.w3.org/2000/svg">
  <style></style>
  <g id="prefix___icons">
    <path
      d="M21 5.5C21 3.6 19.4 2 17.5 2c-.9 0-1.8.4-2.4 1H9C7.4 3 6 4 5.3 5.4l-2.2 5.2c-.1.1-.1.2-.1.4v6c0 2.2 1.8 4 4 4h10c2.2 0 4-1.8 4-4v-6c0-.1 0-.2-.1-.3l-1.1-2.5c.8-.7 1.2-1.7 1.2-2.7zM17.5 4c.8 0 1.5.7 1.5 1.5 0 .6-.3 1.1-.9 1.4-.1 0-.4.1-.6.1-.8 0-1.5-.7-1.5-1.5 0-.3.1-.6.3-.9.3-.4.7-.6 1.2-.6zM7.1 6.2C7.5 5.5 8.2 5 9 5h5v.5C14 7.4 15.6 9 17.5 9h.5l.4 1H16c-.3 0-.6.2-.8.4L13.5 13h-2.9l-1.7-2.6c-.3-.2-.6-.4-.9-.4H5.5l1.6-3.8zM19 17c0 1.1-.9 2-2 2H7c-1.1 0-2-.9-2-2v-5h2.5l1.7 2.6c.2.2.5.4.8.4h4c.3 0 .6-.2.8-.4l1.7-2.6H19v5z" />
    <path d="M13 16h-2c-.6 0-1 .4-1 1s.4 1 1 1h2c.6 0 1-.4 1-1s-.4-1-1-1z" />
  </g>
</svg>