<svg width="29" height="31" viewBox="0 0 29 31" fill="none" xmlns="http://www.w3.org/2000/svg">
<path d="M17.2099 4.35669C17.9606 3.60598 18.9787 3.18424 20.0404 3.18424C21.102 3.18424 22.1202 3.60599 22.8709 4.35669C23.6216 5.10739 24.0434 6.12556 24.0434 7.18721C24.0434 8.24862 23.6218 9.26657 22.8714 10.0172L10.6048 22.2706C10.3544 22.5209 10.0144 22.662 9.66039 22.662C9.30637 22.662 8.96686 22.5214 8.71653 22.2711C8.4662 22.0207 8.32557 21.6812 8.32557 21.3272C8.32557 20.9735 8.46599 20.6342 8.71597 20.3839L20.036 9.07724C20.557 8.55685 20.5575 7.71263 20.0371 7.19162C19.5167 6.67062 18.6725 6.67012 18.1515 7.19051L6.83147 18.4972C6.08104 19.2476 5.6589 20.266 5.6589 21.3272C5.6589 22.3885 6.08049 23.4063 6.83091 24.1567C7.58133 24.9071 8.59913 25.3287 9.66039 25.3287C10.7216 25.3287 11.7394 24.9071 12.4899 24.1567L24.756 11.9039C26.0068 10.6531 26.71 8.95611 26.71 7.18721C26.71 5.41831 26.0073 3.72187 24.7565 2.47107C23.5057 1.22027 21.8093 0.517578 20.0404 0.517578C18.2715 0.517578 16.575 1.22027 15.3242 2.47107L3.07091 14.7244C1.31974 16.4756 0.335938 18.8507 0.335938 21.3272C0.335938 23.8037 1.31974 26.1788 3.07091 27.93C4.82208 29.6812 7.19719 30.665 9.67372 30.665C12.1503 30.665 14.5254 29.6812 16.2765 27.93L28.5299 15.6767C29.0506 15.156 29.0506 14.3118 28.5299 13.7911C28.0092 13.2704 27.1649 13.2704 26.6442 13.7911L14.3909 26.0444C13.1398 27.2955 11.443 27.9983 9.67372 27.9983C7.90443 27.9983 6.20761 27.2955 4.95653 26.0444C3.70545 24.7933 3.0026 23.0965 3.0026 21.3272C3.0026 19.5579 3.70545 17.8611 4.95653 16.61L17.2099 4.35669Z" fill="#C7C7CC"/>
<path d="M17.2099 4.35669C17.9606 3.60598 18.9787 3.18424 20.0404 3.18424C21.102 3.18424 22.1202 3.60599 22.8709 4.35669C23.6216 5.10739 24.0434 6.12556 24.0434 7.18721C24.0434 8.24862 23.6218 9.26657 22.8714 10.0172L10.6048 22.2706C10.3544 22.5209 10.0144 22.662 9.66039 22.662C9.30637 22.662 8.96686 22.5214 8.71653 22.2711C8.4662 22.0207 8.32557 21.6812 8.32557 21.3272C8.32557 20.9735 8.46599 20.6342 8.71597 20.3839L20.036 9.07724C20.557 8.55685 20.5575 7.71263 20.0371 7.19162C19.5167 6.67062 18.6725 6.67012 18.1515 7.19051L6.83147 18.4972C6.08104 19.2476 5.6589 20.266 5.6589 21.3272C5.6589 22.3885 6.08049 23.4063 6.83091 24.1567C7.58133 24.9071 8.59913 25.3287 9.66039 25.3287C10.7216 25.3287 11.7394 24.9071 12.4899 24.1567L24.756 11.9039C26.0068 10.6531 26.71 8.95611 26.71 7.18721C26.71 5.41831 26.0073 3.72187 24.7565 2.47107C23.5057 1.22027 21.8093 0.517578 20.0404 0.517578C18.2715 0.517578 16.575 1.22027 15.3242 2.47107L3.07091 14.7244C1.31974 16.4756 0.335938 18.8507 0.335938 21.3272C0.335938 23.8037 1.31974 26.1788 3.07091 27.93C4.82208 29.6812 7.19719 30.665 9.67372 30.665C12.1503 30.665 14.5254 29.6812 16.2765 27.93L28.5299 15.6767C29.0506 15.156 29.0506 14.3118 28.5299 13.7911C28.0092 13.2704 27.1649 13.2704 26.6442 13.7911L14.3909 26.0444C13.1398 27.2955 11.443 27.9983 9.67372 27.9983C7.90443 27.9983 6.20761 27.2955 4.95653 26.0444C3.70545 24.7933 3.0026 23.0965 3.0026 21.3272C3.0026 19.5579 3.70545 17.8611 4.95653 16.61L17.2099 4.35669Z" fill="black" fill-opacity="0.2"/>
</svg>
