<svg width="32" height="32" viewBox="0 0 32 32" fill="none" xmlns="http://www.w3.org/2000/svg">
<path fill-rule="evenodd" clip-rule="evenodd" d="M16.0007 0C14.5862 0 13.2296 0.561903 12.2294 1.5621C11.2292 2.56229 10.6673 3.91885 10.6673 5.33333V16C10.6673 17.4145 11.2292 18.771 12.2294 19.7712C13.2296 20.7714 14.5862 21.3333 16.0007 21.3333C17.4151 21.3333 18.7717 20.7714 19.7719 19.7712C20.7721 18.771 21.334 17.4145 21.334 16V5.33333C21.334 3.91885 20.7721 2.56229 19.7719 1.5621C18.7717 0.561903 17.4151 0 16.0007 0ZM14.115 3.44772C14.6151 2.94762 15.2934 2.66667 16.0007 2.66667C16.7079 2.66667 17.3862 2.94762 17.8863 3.44772C18.3864 3.94781 18.6673 4.62609 18.6673 5.33333V16C18.6673 16.7072 18.3864 17.3855 17.8863 17.8856C17.3862 18.3857 16.7079 18.6667 16.0007 18.6667C15.2934 18.6667 14.6151 18.3857 14.115 17.8856C13.6149 17.3855 13.334 16.7072 13.334 16V5.33333C13.334 4.62609 13.6149 3.94781 14.115 3.44772Z" fill="#C7C7CC"/>
<path fill-rule="evenodd" clip-rule="evenodd" d="M16.0007 0C14.5862 0 13.2296 0.561903 12.2294 1.5621C11.2292 2.56229 10.6673 3.91885 10.6673 5.33333V16C10.6673 17.4145 11.2292 18.771 12.2294 19.7712C13.2296 20.7714 14.5862 21.3333 16.0007 21.3333C17.4151 21.3333 18.7717 20.7714 19.7719 19.7712C20.7721 18.771 21.334 17.4145 21.334 16V5.33333C21.334 3.91885 20.7721 2.56229 19.7719 1.5621C18.7717 0.561903 17.4151 0 16.0007 0ZM14.115 3.44772C14.6151 2.94762 15.2934 2.66667 16.0007 2.66667C16.7079 2.66667 17.3862 2.94762 17.8863 3.44772C18.3864 3.94781 18.6673 4.62609 18.6673 5.33333V16C18.6673 16.7072 18.3864 17.3855 17.8863 17.8856C17.3862 18.3857 16.7079 18.6667 16.0007 18.6667C15.2934 18.6667 14.6151 18.3857 14.115 17.8856C13.6149 17.3855 13.334 16.7072 13.334 16V5.33333C13.334 4.62609 13.6149 3.94781 14.115 3.44772Z" fill="black" fill-opacity="0.2"/>
<path d="M8.00065 13.3333C8.00065 12.597 7.4037 12 6.66732 12C5.93094 12 5.33398 12.597 5.33398 13.3333V16C5.33398 18.829 6.45779 21.5421 8.45818 23.5425C10.1417 25.226 12.33 26.2886 14.6673 26.583V29.3333H10.6673C9.93094 29.3333 9.33398 29.9303 9.33398 30.6667C9.33398 31.403 9.93094 32 10.6673 32H21.334C22.0704 32 22.6673 31.403 22.6673 30.6667C22.6673 29.9303 22.0704 29.3333 21.334 29.3333H17.334V26.583C19.6713 26.2886 21.8596 25.226 23.5431 23.5425C25.5435 21.5421 26.6673 18.829 26.6673 16V13.3333C26.6673 12.597 26.0704 12 25.334 12C24.5976 12 24.0007 12.597 24.0007 13.3333V16C24.0007 18.1217 23.1578 20.1566 21.6575 21.6569C20.1572 23.1571 18.1224 24 16.0007 24C13.8789 24 11.8441 23.1571 10.3438 21.6569C8.84351 20.1566 8.00065 18.1217 8.00065 16V13.3333Z" fill="#C7C7CC"/>
<path d="M8.00065 13.3333C8.00065 12.597 7.4037 12 6.66732 12C5.93094 12 5.33398 12.597 5.33398 13.3333V16C5.33398 18.829 6.45779 21.5421 8.45818 23.5425C10.1417 25.226 12.33 26.2886 14.6673 26.583V29.3333H10.6673C9.93094 29.3333 9.33398 29.9303 9.33398 30.6667C9.33398 31.403 9.93094 32 10.6673 32H21.334C22.0704 32 22.6673 31.403 22.6673 30.6667C22.6673 29.9303 22.0704 29.3333 21.334 29.3333H17.334V26.583C19.6713 26.2886 21.8596 25.226 23.5431 23.5425C25.5435 21.5421 26.6673 18.829 26.6673 16V13.3333C26.6673 12.597 26.0704 12 25.334 12C24.5976 12 24.0007 12.597 24.0007 13.3333V16C24.0007 18.1217 23.1578 20.1566 21.6575 21.6569C20.1572 23.1571 18.1224 24 16.0007 24C13.8789 24 11.8441 23.1571 10.3438 21.6569C8.84351 20.1566 8.00065 18.1217 8.00065 16V13.3333Z" fill="black" fill-opacity="0.2"/>
</svg>
