<svg width="22" height="22" viewBox="0 0 22 22" fill="none" xmlns="http://www.w3.org/2000/svg">
<path fill-rule="evenodd" clip-rule="evenodd" d="M18 0.171875C17.4973 0.171875 16.9994 0.2709 16.5349 0.463297C16.0705 0.655693 15.6484 0.937693 15.2929 1.2932L1.79292 14.7932C1.66986 14.9163 1.58105 15.0693 1.53526 15.2372L0.0352593 20.7372C-0.0591621 21.0834 0.0391662 21.4537 0.292916 21.7074C0.546667 21.9612 0.916928 22.0595 1.26314 21.9651L6.76314 20.4651C6.93104 20.4193 7.08407 20.3305 7.20713 20.2074L20.7071 6.70741C21.0626 6.35191 21.3446 5.92986 21.537 5.46538C21.7294 5.00089 21.8284 4.50306 21.8284 4.0003C21.8284 3.49755 21.7294 2.99972 21.537 2.53523C21.3446 2.07074 21.0626 1.6487 20.7071 1.2932C20.3516 0.937693 19.9296 0.655693 19.4651 0.463297C19.0006 0.2709 18.5028 0.171875 18 0.171875ZM17.3003 2.31106C17.5222 2.21917 17.7599 2.17188 18 2.17188C18.2401 2.17188 18.4779 2.21917 18.6997 2.31106C18.9216 2.40294 19.1231 2.53762 19.2929 2.70741C19.4627 2.87719 19.5974 3.07876 19.6893 3.30059C19.7812 3.52243 19.8284 3.76019 19.8284 4.0003C19.8284 4.24042 19.7812 4.47818 19.6893 4.70001C19.5974 4.92184 19.4627 5.12341 19.2929 5.2932L5.9807 18.6054L2.42524 19.5751L3.39491 16.0196L16.7071 2.70741C16.8769 2.53762 17.0785 2.40294 17.3003 2.31106Z" fill="#C7C7CC"/>
<path fill-rule="evenodd" clip-rule="evenodd" d="M18 0.171875C17.4973 0.171875 16.9994 0.2709 16.5349 0.463297C16.0705 0.655693 15.6484 0.937693 15.2929 1.2932L1.79292 14.7932C1.66986 14.9163 1.58105 15.0693 1.53526 15.2372L0.0352593 20.7372C-0.0591621 21.0834 0.0391662 21.4537 0.292916 21.7074C0.546667 21.9612 0.916928 22.0595 1.26314 21.9651L6.76314 20.4651C6.93104 20.4193 7.08407 20.3305 7.20713 20.2074L20.7071 6.70741C21.0626 6.35191 21.3446 5.92986 21.537 5.46538C21.7294 5.00089 21.8284 4.50306 21.8284 4.0003C21.8284 3.49755 21.7294 2.99972 21.537 2.53523C21.3446 2.07074 21.0626 1.6487 20.7071 1.2932C20.3516 0.937693 19.9296 0.655693 19.4651 0.463297C19.0006 0.2709 18.5028 0.171875 18 0.171875ZM17.3003 2.31106C17.5222 2.21917 17.7599 2.17188 18 2.17188C18.2401 2.17188 18.4779 2.21917 18.6997 2.31106C18.9216 2.40294 19.1231 2.53762 19.2929 2.70741C19.4627 2.87719 19.5974 3.07876 19.6893 3.30059C19.7812 3.52243 19.8284 3.76019 19.8284 4.0003C19.8284 4.24042 19.7812 4.47818 19.6893 4.70001C19.5974 4.92184 19.4627 5.12341 19.2929 5.2932L5.9807 18.6054L2.42524 19.5751L3.39491 16.0196L16.7071 2.70741C16.8769 2.53762 17.0785 2.40294 17.3003 2.31106Z" fill="black" fill-opacity="0.2"/>
</svg>
