<svg width="31" height="31" viewBox="0 0 24 24" fill="none" xmlns="http://www.w3.org/2000/svg">
<path fill-rule="evenodd" clip-rule="evenodd" d="M22.9439 2.33038C23.0708 1.96779 22.9788 1.56456 22.7071 1.29292C22.4355 1.02128 22.0322 0.929264 21.6697 1.05617L1.66965 8.05617C1.28265 8.19162 1.01755 8.54959 1.00084 8.95926C0.984123 9.36894 1.21919 9.74731 1.59387 9.91384L10.2424 13.7576L14.0862 22.4062C14.2527 22.7808 14.6311 23.0159 15.0408 22.9992C15.4504 22.9825 15.8084 22.7174 15.9439 22.3304L22.9439 2.33038ZM14.8894 19.289L12.1928 13.2215L19.6085 5.80571L14.8894 19.289ZM4.71108 9.11063L18.1943 4.3915L10.7785 11.8073L4.71108 9.11063Z" fill="#C7C7CC"/>
<path fill-rule="evenodd" clip-rule="evenodd" d="M22.9439 2.33038C23.0708 1.96779 22.9788 1.56456 22.7071 1.29292C22.4355 1.02128 22.0322 0.929264 21.6697 1.05617L1.66965 8.05617C1.28265 8.19162 1.01755 8.54959 1.00084 8.95926C0.984123 9.36894 1.21919 9.74731 1.59387 9.91384L10.2424 13.7576L14.0862 22.4062C14.2527 22.7808 14.6311 23.0159 15.0408 22.9992C15.4504 22.9825 15.8084 22.7174 15.9439 22.3304L22.9439 2.33038ZM14.8894 19.289L12.1928 13.2215L19.6085 5.80571L14.8894 19.289ZM4.71108 9.11063L18.1943 4.3915L10.7785 11.8073L4.71108 9.11063Z" fill="black" fill-opacity="0.2"/>
</svg>
