<svg width="30" height="30" viewBox="0 0 30 30" fill="" xmlns="http://www.w3.org/2000/svg">
<path d="M23.8745 29.9998H6.12508C5.3989 29.999 4.70278 29.7636 4.1894 29.3453C3.67603 28.927 3.38733 28.3599 3.38672 27.7684V4.82382C3.38672 4.57296 3.50909 4.33238 3.72687 4.15499C3.94466 3.9776 4.24003 3.87793 4.54802 3.87793C4.85602 3.87793 5.15142 3.9776 5.36921 4.15499C5.587 4.33238 5.70933 4.57296 5.70933 4.82382V27.7665C5.70963 27.8563 5.75352 27.9424 5.83138 28.006C5.90925 28.0696 6.0148 28.1056 6.12508 28.1061H23.8745C23.9848 28.1056 24.0903 28.0696 24.1682 28.006C24.2461 27.9424 24.2899 27.8563 24.2902 27.7665V4.82382C24.2902 4.57296 24.4126 4.33238 24.6304 4.15499C24.8482 3.9776 25.1435 3.87793 25.4515 3.87793C25.7595 3.87793 26.0549 3.9776 26.2727 4.15499C26.4905 4.33238 26.6128 4.57296 26.6128 4.82382V27.7665C26.6128 28.3583 26.3244 28.9259 25.811 29.3447C25.2975 29.7634 24.6011 29.999 23.8745 29.9998Z" fill=""/>
<path d="M11.0324 24.5147C10.7244 24.5147 10.429 24.415 10.2112 24.2376C9.99346 24.0602 9.87109 23.8196 9.87109 23.5688V10.3263C9.87109 10.0754 9.99346 9.83482 10.2112 9.65743C10.429 9.48004 10.7244 9.38037 11.0324 9.38037C11.3404 9.38037 11.6358 9.48004 11.8535 9.65743C12.0713 9.83482 12.1937 10.0754 12.1937 10.3263V23.5688C12.1937 23.8196 12.0713 24.0602 11.8535 24.2376C11.6358 24.415 11.3404 24.5147 11.0324 24.5147Z" fill=""/>
<path d="M18.9679 24.5147C18.6599 24.5147 18.3645 24.415 18.1468 24.2376C17.929 24.0602 17.8066 23.8196 17.8066 23.5688V10.3263C17.8066 10.0754 17.929 9.83482 18.1468 9.65743C18.3645 9.48004 18.6599 9.38037 18.9679 9.38037C19.2759 9.38037 19.5713 9.48004 19.7891 9.65743C20.0069 9.83482 20.1293 10.0754 20.1293 10.3263V23.5688C20.1293 23.8196 20.0069 24.0602 19.7891 24.2376C19.5713 24.415 19.2759 24.5147 18.9679 24.5147Z" fill=""/>
<path d="M28.8387 5.76972H1.1613C0.853308 5.76972 0.557942 5.6701 0.340155 5.49272C0.122368 5.31533 0 5.07469 0 4.82382C0 4.57296 0.122368 4.33238 0.340155 4.15499C0.557942 3.9776 0.853308 3.87793 1.1613 3.87793H28.8387C29.1467 3.87793 29.4421 3.9776 29.6598 4.15499C29.8776 4.33238 30 4.57296 30 4.82382C30 5.07469 29.8776 5.31533 29.6598 5.49272C29.4421 5.6701 29.1467 5.76972 28.8387 5.76972Z" fill=""/>
<path d="M19.5487 1.89179H10.3547C10.0467 1.89179 9.7513 1.79212 9.53351 1.61473C9.31573 1.43734 9.19336 1.19676 9.19336 0.945894C9.19336 0.695027 9.31573 0.454449 9.53351 0.27706C9.7513 0.0996701 10.0467 0 10.3547 0H19.5487C19.8567 0 20.1521 0.0996701 20.3699 0.27706C20.5877 0.454449 20.71 0.695027 20.71 0.945894C20.71 1.19676 20.5877 1.43734 20.3699 1.61473C20.1521 1.79212 19.8567 1.89179 19.5487 1.89179Z" fill=""/>
</svg>
