<svg width="24" height="24" viewBox="0 0 24 24" fill="none" xmlns="http://www.w3.org/2000/svg">
<g clip-path="url(#clip0_473_3602)">
<path d="M12.6272 2.75554C11.3819 2.20552 10.0281 1.94517 8.66759 1.9941C7.30711 2.04302 5.97545 2.39994 4.77287 3.03799C3.57029 3.67604 2.52813 4.57859 1.72483 5.6777C0.921541 6.7768 0.378056 8.04382 0.135291 9.38336C-0.107474 10.7229 -0.0431912 12.1001 0.3233 13.4112C0.68979 14.7223 1.34894 15.9331 2.25112 16.9526C2.61712 17.3662 3.24911 17.4048 3.66271 17.0388C4.0763 16.6728 4.11488 16.0408 3.74888 15.6272C3.04718 14.8343 2.53451 13.8925 2.24946 12.8727C1.96441 11.853 1.91442 10.7819 2.10323 9.74001C2.29205 8.69814 2.71476 7.71269 3.33955 6.85783C3.96433 6.00297 4.7749 5.30099 5.71024 4.80472C6.64558 4.30846 7.68131 4.03086 8.73947 3.9928C9.79762 3.95475 10.8506 4.15724 11.8192 4.58504C12.7878 5.01283 13.6467 5.65478 14.3312 6.46255C15.0158 7.27032 15.5082 8.22287 15.7714 9.24848C15.8849 9.69071 16.2834 9.99993 16.74 9.99993H18C18.8503 9.99927 19.6794 10.2696 20.3656 10.7716C21.0519 11.2736 21.5603 11.9812 21.8171 12.7918C22.0739 13.6023 22.0658 14.4736 21.7938 15.2793C21.5219 16.0849 21.0003 16.7828 20.3048 17.2719C19.853 17.5896 19.7443 18.2134 20.062 18.6652C20.3797 19.1169 21.0035 19.2256 21.4552 18.9079C22.4985 18.1743 23.2809 17.1273 23.6888 15.9189C24.0967 14.7105 24.1089 13.4036 23.7237 12.1877C23.3385 10.9719 22.5759 9.91044 21.5465 9.15741C20.5174 8.40453 19.2751 7.9991 18 7.99993H17.4804C17.117 6.96749 16.5675 6.00784 15.857 5.16948C14.9768 4.13092 13.8725 3.30556 12.6272 2.75554Z" fill="#050505"/>
<path d="M13 11.9999C13 11.4476 12.5523 10.9999 12 10.9999C11.4477 10.9999 11 11.4476 11 11.9999V18.5857L8.70711 16.2928C8.31658 15.9023 7.68342 15.9023 7.29289 16.2928C6.90237 16.6834 6.90237 17.3165 7.29289 17.707L11.2929 21.707C11.6834 22.0976 12.3166 22.0976 12.7071 21.707L16.7071 17.707C17.0976 17.3165 17.0976 16.6834 16.7071 16.2928C16.3166 15.9023 15.6834 15.9023 15.2929 16.2928L13 18.5857V11.9999Z" fill="#050505"/>
</g>
<defs>
<clipPath id="clip0_473_3602">
<rect width="24" height="24" fill="white"/>
</clipPath>
</defs>
</svg>
