<svg width="24px" height="24px" viewBox="0 0 24 24" fill="none" xmlns="http://www.w3.org/2000/svg" transform="rotate(0) scale(1, 1)">
<path fill-rule="evenodd" clip-rule="evenodd" d="M11 20C13.125 20 15.0781 19.2635 16.6178 18.0318L20.2929 21.707C20.6834 22.0975 21.3166 22.0975 21.7071 21.707C22.0977 21.3165 22.0977 20.6833 21.7071 20.2928L18.032 16.6176C19.2635 15.078 20 13.125 20 11C20 6.02944 15.9706 2 11 2C6.02944 2 2 6.02944 2 11C2 15.9706 6.02944 20 11 20ZM11 4C7.13401 4 4 7.13401 4 11C4 14.866 7.13401 18 11 18C12.8858 18 14.5975 17.2543 15.8562 16.0416C15.8826 16.0072 15.9115 15.9742 15.9429 15.9428C15.9744 15.9114 16.0074 15.8825 16.0417 15.8561C17.2543 14.5974 18 12.8858 18 11C18 7.13401 14.866 4 11 4Z" fill="#ffffff"/>
</svg>