<svg width="13" height="14" viewBox="0 0 13 14" fill="none" xmlns="http://www.w3.org/2000/svg">
<path d="M11.6626 4.24703L5.16265 11.247C5.12492 11.2877 5.08011 11.32 5.0308 11.342C4.98148 11.364 4.92861 11.3753 4.87523 11.3753C4.82184 11.3753 4.76897 11.364 4.71966 11.342C4.67034 11.32 4.62553 11.2877 4.5878 11.247L1.74405 8.18453C1.66782 8.10244 1.625 7.9911 1.625 7.875C1.625 7.7589 1.66782 7.64756 1.74405 7.56547C1.82028 7.48337 1.92367 7.43726 2.03148 7.43726C2.13928 7.43726 2.24267 7.48337 2.3189 7.56547L4.87523 10.319L11.0878 3.62797C11.164 3.54587 11.2674 3.49976 11.3752 3.49976C11.483 3.49976 11.5864 3.54587 11.6626 3.62797C11.7389 3.71006 11.7817 3.8214 11.7817 3.9375C11.7817 4.0536 11.7389 4.16494 11.6626 4.24703Z" fill="white"/>
</svg>
