<svg width="20" height="20" viewBox="0 0 20 20" fill="none" xmlns="http://www.w3.org/2000/svg">
<path d="M8.66797 11.3337H2.00131C1.62353 11.3337 1.30708 11.2057 1.05197 10.9497C0.796862 10.6937 0.668862 10.3772 0.667973 10.0003C0.667084 9.62344 0.795085 9.307 1.05197 9.051C1.30886 8.795 1.62531 8.667 2.00131 8.667H8.66797V2.00033C8.66797 1.62255 8.79597 1.30611 9.05197 1.051C9.30797 0.795886 9.62442 0.667886 10.0013 0.666997C10.3782 0.666108 10.6951 0.794108 10.952 1.051C11.2089 1.30789 11.3364 1.62433 11.3346 2.00033V8.667H18.0013C18.3791 8.667 18.696 8.795 18.952 9.051C19.208 9.307 19.3355 9.62344 19.3346 10.0003C19.3338 10.3772 19.2058 10.6941 18.9506 10.951C18.6955 11.2079 18.3791 11.3354 18.0013 11.3337H11.3346V18.0003C11.3346 18.3781 11.2066 18.695 10.9506 18.951C10.6946 19.207 10.3782 19.3346 10.0013 19.3337C9.62442 19.3328 9.30797 19.2048 9.05197 18.9497C8.79597 18.6946 8.66797 18.3781 8.66797 18.0003V11.3337Z" fill="#1E1E1E"/>
</svg>
