<svg width="120" height="120" viewBox="0 0 120 120" fill="none" xmlns="http://www.w3.org/2000/svg">
<rect width="120" height="120" rx="60" fill="#E5E5EA"/>
<path d="M60.5 30C48.08 30 38 40.0935 38 52.5299C38 64.7262 47.54 74.6395 60.2 75H60.74H61.16H61.28C73.4 74.5794 82.94 64.7262 83 52.5299C83 40.0935 72.92 30 60.5 30Z" fill="#C7C7CC"/>
<path d="M60.5 30C48.08 30 38 40.0935 38 52.5299C38 64.7262 47.54 74.6395 60.2 75H60.74H61.16H61.28C73.4 74.5794 82.94 64.7262 83 52.5299C83 40.0935 72.92 30 60.5 30Z" fill="black" fill-opacity="0.2"/>
<path d="M101 103.839C90.236 113.841 75.8437 120 60 120C44.1563 120 29.764 113.841 19 103.839C20.4513 98.2893 24.382 93.2275 30.1268 89.3245C46.6357 78.2252 73.4853 78.2252 89.8732 89.3245C95.6785 93.2275 99.5487 98.2893 101 103.839Z" fill="#C7C7CC"/>
<path d="M101 103.839C90.236 113.841 75.8437 120 60 120C44.1563 120 29.764 113.841 19 103.839C20.4513 98.2893 24.382 93.2275 30.1268 89.3245C46.6357 78.2252 73.4853 78.2252 89.8732 89.3245C95.6785 93.2275 99.5487 98.2893 101 103.839Z" fill="black" fill-opacity="0.2"/>
</svg>
