<svg width="20px" height="20px" viewBox="0 0 20 20" fill="none" xmlns="http://www.w3.org/2000/svg"
  transform="rotate(0) scale(1, 1)">
  <path fill-rule="evenodd" clip-rule="evenodd"
    d="M10.0141 1.59442C10.2484 1.27745 10.2746 0.852424 10.0811 0.509041C9.88755 0.165658 9.51037 -0.0320113 9.11788 0.00425972C7.22654 0.179044 5.4241 0.88886 3.92145 2.05065C2.4188 3.21244 1.27811 4.77816 0.632836 6.56459C-0.0124347 8.35102 -0.135591 10.2843 0.277778 12.1381C0.691147 13.992 1.62394 15.6898 2.96702 17.0329C4.3101 18.376 6.0079 19.3088 7.86177 19.7221C9.71564 20.1355 11.6489 20.0124 13.4353 19.3671C15.2218 18.7218 16.7875 17.5811 17.9493 16.0785C19.1111 14.5758 19.8209 12.7734 19.9957 10.882C20.0319 10.4895 19.8343 10.1124 19.4909 9.91884C19.1475 9.72532 18.7225 9.75156 18.4055 9.98585C17.2498 10.8401 15.826 11.2511 14.3929 11.1443C12.9597 11.0374 11.6126 10.4197 10.5964 9.40351C9.58023 8.38733 8.96254 7.04018 8.85566 5.60706C8.74879 4.17395 9.15985 2.75008 10.0141 1.59442ZM5.14478 3.63289C5.8055 3.12204 6.53868 2.72043 7.31629 2.43908C6.93528 3.4922 6.77664 4.62183 6.8612 5.7558C7.0037 7.66661 7.82729 9.46282 9.1822 10.8177C10.5371 12.1726 12.3333 12.9962 14.2441 13.1387C15.3781 13.2233 16.5077 13.0646 17.5608 12.6836C17.2795 13.4612 16.8779 14.1944 16.367 14.8551C15.4376 16.0573 14.185 16.9698 12.7559 17.486C11.3267 18.0022 9.78013 18.1008 8.29703 17.7701C6.81394 17.4394 5.4557 16.6931 4.38123 15.6187C3.30677 14.5442 2.56054 13.186 2.22984 11.7029C1.89914 10.2198 1.99767 8.67318 2.51389 7.24404C3.0301 5.81489 3.94266 4.56232 5.14478 3.63289Z"
    fill="#fff" />
</svg>