<svg width="24" height="24" viewBox="0 0 24 24" fill="none" xmlns="http://www.w3.org/2000/svg">
  <path fill-rule="evenodd" clip-rule="evenodd"
    d="M19 1.17188C18.4973 1.17188 17.9994 1.2709 17.5349 1.4633C17.0705 1.65569 16.6484 1.93769 16.2929 2.2932L2.79292 15.7932C2.66986 15.9163 2.58105 16.0693 2.53526 16.2372L1.03526 21.7372C0.940838 22.0834 1.03917 22.4537 1.29292 22.7074C1.54667 22.9612 1.91693 23.0595 2.26314 22.9651L7.76314 21.4651C7.93104 21.4193 8.08407 21.3305 8.20713 21.2074L21.7071 7.70741C22.0626 7.35191 22.3446 6.92986 22.537 6.46538C22.7294 6.00089 22.8284 5.50306 22.8284 5.0003C22.8284 4.49755 22.7294 3.99972 22.537 3.53523C22.3446 3.07074 22.0626 2.6487 21.7071 2.2932C21.3516 1.93769 20.9296 1.65569 20.4651 1.4633C20.0006 1.2709 19.5028 1.17188 19 1.17188ZM18.3003 3.31106C18.5222 3.21917 18.7599 3.17188 19 3.17188C19.2401 3.17188 19.4779 3.21917 19.6997 3.31106C19.9216 3.40294 20.1231 3.53762 20.2929 3.70741C20.4627 3.87719 20.5974 4.07876 20.6893 4.30059C20.7812 4.52243 20.8284 4.76019 20.8284 5.0003C20.8284 5.24042 20.7812 5.47818 20.6893 5.70001C20.5974 5.92184 20.4627 6.12341 20.2929 6.2932L6.9807 19.6054L3.42524 20.5751L4.39491 17.0196L17.7071 3.70741C17.8769 3.53762 18.0785 3.40294 18.3003 3.31106Z"
    fill="#000" />
</svg>