<svg width="20" height="20" viewBox="0 0 20 20" fill="none" xmlns="http://www.w3.org/2000/svg">
  <path
    d="M2.29289 2.29289C2.48043 2.10536 2.73478 2 3 2H7C7.55228 2 8 1.55228 8 1C8 0.447715 7.55228 0 7 0H3C2.20435 0 1.44129 0.31607 0.87868 0.87868C0.31607 1.44129 0 2.20435 0 3V17C0 17.7957 0.31607 18.5587 0.87868 19.1213C1.44129 19.6839 2.20435 20 3 20H7C7.55228 20 8 19.5523 8 19C8 18.4477 7.55228 18 7 18H3C2.73478 18 2.48043 17.8946 2.29289 17.7071C2.10536 17.5196 2 17.2652 2 17V3C2 2.73478 2.10536 2.48043 2.29289 2.29289Z"
    fill="#FF3B30" />
  <path
    d="M14.7071 4.29289C14.3166 3.90237 13.6834 3.90237 13.2929 4.29289C12.9024 4.68342 12.9024 5.31658 13.2929 5.70711L16.5858 9H7C6.44772 9 6 9.44771 6 10C6 10.5523 6.44772 11 7 11H16.5858L13.2929 14.2929C12.9024 14.6834 12.9024 15.3166 13.2929 15.7071C13.6834 16.0976 14.3166 16.0976 14.7071 15.7071L19.7071 10.7071C19.8902 10.524 19.9874 10.2877 19.9989 10.048C19.9996 10.032 20 10.016 20 10"
    fill="#FF3B30" />
  <path d="M20 9.99077C19.9976 9.73793 19.9 9.48581 19.7071 9.29289L14.7071 4.29289" fill="#FF3B30" />
</svg>