<svg width="24" height="24" viewBox="0 0 24 24" fill="none" xmlns="http://www.w3.org/2000/svg">
<path fill-rule="evenodd" clip-rule="evenodd" d="M1 12C1 5.92487 5.92487 1 12 1C18.0751 1 23 5.92487 23 12C23 18.0751 18.0751 23 12 23C5.92487 23 1 18.0751 1 12ZM4.96802 6.38242C3.73644 7.92207 3 9.87503 3 12C3 14.125 3.73649 16.078 4.96813 17.6177L7.82842 14.7574C7.30489 13.967 7 13.0191 7 12C7 10.981 7.30485 10.0331 7.82832 9.24272L4.96802 6.38242ZM9.24265 16.1716L6.38235 19.0319C7.92202 20.2635 9.875 21 12 21C14.125 21 16.078 20.2635 17.6176 19.0319L14.7573 16.1716C13.9669 16.6951 13.0191 17 12 17C10.9809 17 10.0331 16.6951 9.24265 16.1716ZM21 12C21 14.125 20.2635 16.0781 19.0319 17.6177L16.1716 14.7574C16.6951 13.967 17 13.0191 17 12C17 10.981 16.6951 10.0331 16.1717 9.24271L19.032 6.3824C20.2636 7.92206 21 9.87503 21 12ZM17.6178 4.96817L14.7575 7.82846C13.967 7.3049 13.0191 7 12 7C10.9809 7 10.033 7.3049 9.2425 7.82847L6.38221 4.96818C7.9219 3.73651 9.87494 3 12 3C14.1251 3 16.0781 3.7365 17.6178 4.96817ZM12 9C10.3431 9 9 10.3431 9 12C9 13.6569 10.3431 15 12 15C13.6569 15 15 13.6569 15 12C15 10.3431 13.6569 9 12 9Z" fill="#2724A1"/>
</svg>
