<svg width="20" height="20" viewBox="0 0 20 20" fill="none" xmlns="http://www.w3.org/2000/svg">
<path fill-rule="evenodd" clip-rule="evenodd" d="M9 18C11.125 18 13.0781 17.2635 14.6178 16.0318L18.2929 19.707C18.6834 20.0975 19.3166 20.0975 19.7071 19.707C20.0977 19.3165 20.0977 18.6833 19.7071 18.2928L16.032 14.6176C17.2635 13.078 18 11.125 18 9C18 4.02944 13.9706 0 9 0C4.02944 0 0 4.02944 0 9C0 13.9706 4.02944 18 9 18ZM9 2C5.13401 2 2 5.13401 2 9C2 12.866 5.13401 16 9 16C10.8858 16 12.5975 15.2543 13.8562 14.0416C13.8826 14.0072 13.9115 13.9742 13.9429 13.9428C13.9744 13.9114 14.0074 13.8825 14.0417 13.8561C15.2543 12.5974 16 10.8858 16 9C16 5.13401 12.866 2 9 2Z" fill="#C7C7CC"/>
<path fill-rule="evenodd" clip-rule="evenodd" d="M9 18C11.125 18 13.0781 17.2635 14.6178 16.0318L18.2929 19.707C18.6834 20.0975 19.3166 20.0975 19.7071 19.707C20.0977 19.3165 20.0977 18.6833 19.7071 18.2928L16.032 14.6176C17.2635 13.078 18 11.125 18 9C18 4.02944 13.9706 0 9 0C4.02944 0 0 4.02944 0 9C0 13.9706 4.02944 18 9 18ZM9 2C5.13401 2 2 5.13401 2 9C2 12.866 5.13401 16 9 16C10.8858 16 12.5975 15.2543 13.8562 14.0416C13.8826 14.0072 13.9115 13.9742 13.9429 13.9428C13.9744 13.9114 14.0074 13.8825 14.0417 13.8561C15.2543 12.5974 16 10.8858 16 9C16 5.13401 12.866 2 9 2Z" fill="black" fill-opacity="0.2"/>
</svg>
