<svg width="225" height="80" viewBox="0 0 225 80" fill="none" xmlns="http://www.w3.org/2000/svg">
<path d="M24.1959 26.6783H2.44493C1.09463 26.6783 0 27.7728 0 29.123V50.8712C0 52.2213 1.09463 53.3158 2.44493 53.3158H24.1959C25.5462 53.3158 26.6408 52.2213 26.6408 50.8712V29.123C26.6408 27.7728 25.5462 26.6783 24.1959 26.6783Z" fill="#2724A1"/>
<path d="M50.8365 0H29.0856C27.7353 0 26.6406 1.0945 26.6406 2.44463V24.1929C26.6406 25.543 27.7353 26.6375 29.0856 26.6375H50.8365C52.1868 26.6375 53.2815 25.543 53.2815 24.1929V2.44463C53.2815 1.0945 52.1868 0 50.8365 0Z" fill="#2724A1"/>
<path d="M50.7906 53.3625H29.0397C27.6894 53.3625 26.5947 54.457 26.5947 55.8072V77.5554C26.5947 78.9056 27.6894 80 29.0397 80H50.7906C52.1409 80 53.2356 78.9056 53.2356 77.5554V55.8072C53.2356 54.457 52.1409 53.3625 50.7906 53.3625Z" fill="#2724A1"/>
<path d="M79.9754 38.3369C79.9577 36.8082 79.5417 35.3107 78.7685 33.9925C77.9952 32.6743 76.8916 31.5811 75.5669 30.8213C74.1268 30.0037 72.5013 29.5701 70.8459 29.562H40.6142C38.963 29.562 37.3277 29.5189 35.7403 30.0855C32.6706 31.1804 30.2591 33.8266 29.8081 37.108C29.671 38.1023 29.7172 39.1142 29.7172 40.1165C29.7172 41.2337 29.6806 42.3318 29.9101 43.4266C30.5843 46.633 33.2412 49.1723 36.3571 50.0198C37.8202 50.4172 39.3248 50.3501 40.8198 50.3501H67.5882C68.8218 50.3501 70.0666 50.4028 71.2986 50.339C74.6058 50.1666 77.7966 48.2258 79.1896 45.1631C80.1698 43.0085 79.9961 40.6448 79.9754 38.3369ZM53.3457 33.8505H41.6502C40.2158 33.8505 40.2158 36.0849 41.6502 36.0849H53.3457V48.1109H49.8218C46.2277 48.1109 42.6336 48.1221 39.0379 48.1109C36.7444 48.103 34.5162 47.1725 33.1408 45.2764C31.7478 43.3516 31.9486 41.1475 31.9486 38.9083C31.9486 36.3291 32.9431 34.0835 35.2494 32.7509C36.7332 31.8938 38.3064 31.7933 39.9592 31.7933H53.3473L53.3457 33.8505ZM77.7313 42.086C77.5623 45.0434 75.1142 47.3672 72.3202 47.9641C71.0882 48.2274 69.7255 48.1125 68.4711 48.1125H55.5787V36.0865H68.6385C70.0729 36.0865 70.0729 33.8521 68.6385 33.8521H55.5787V31.798H70.8459C73.7595 31.8379 76.6012 33.6 77.4747 36.4776C77.7743 37.4687 77.7424 38.4614 77.7424 39.4829C77.7424 40.3479 77.7791 41.2209 77.7297 42.086H77.7313Z" fill="#2724A1"/>
<path d="M216.786 40.681C216.564 40.681 216.372 40.5986 216.21 40.4339C216.049 40.2691 215.968 40.0735 215.968 39.847V36.6964H206.42C206.198 36.6964 206.006 36.614 205.845 36.4493C205.683 36.2845 205.602 36.0889 205.602 35.8624V32.5883C205.602 32.0529 205.733 31.6101 205.996 31.2601L215.059 19.6152C215.24 19.3887 215.402 19.2445 215.543 19.1828C215.705 19.1004 215.917 19.0592 216.18 19.0592H220.757C220.979 19.0592 221.171 19.1416 221.333 19.3063C221.494 19.471 221.575 19.6667 221.575 19.8932V31.7543H224.182C224.404 31.7543 224.596 31.8366 224.757 32.0014C224.919 32.1661 225 32.3617 225 32.5883V35.8624C225 36.0889 224.919 36.2845 224.757 36.4493C224.596 36.614 224.404 36.6964 224.182 36.6964H221.575V39.847C221.575 40.0735 221.494 40.2691 221.333 40.4339C221.171 40.5986 220.979 40.681 220.757 40.681H216.786ZM216.119 31.7543V26.0708L211.694 31.7543H216.119Z" fill="#2724A1"/>
<path d="M202.843 26.0087C202.843 26.6059 202.783 27.1825 202.662 27.7385C202.54 28.2945 202.328 28.8402 202.025 29.3756C201.742 29.8904 201.358 30.4052 200.873 30.92C200.409 31.4348 199.833 31.9496 199.146 32.4644L194.902 35.7385H202.51C202.732 35.7385 202.924 35.8209 203.086 35.9856C203.248 36.1504 203.328 36.346 203.328 36.5725V39.8467C203.328 40.0732 203.248 40.2688 203.086 40.4335C202.924 40.5983 202.732 40.6806 202.51 40.6806H186.507C186.285 40.6806 186.093 40.5983 185.931 40.4335C185.769 40.2688 185.688 40.0732 185.688 39.8467V37.1903C185.688 36.8608 185.749 36.5313 185.87 36.2019C186.012 35.8724 186.244 35.5944 186.567 35.3679L195.63 28.7578C196.337 28.2224 196.782 27.7385 196.963 27.306C197.145 26.853 197.236 26.4206 197.236 26.0087C197.236 25.8646 197.206 25.669 197.145 25.4219C197.105 25.1542 196.994 24.8968 196.812 24.6497C196.63 24.382 196.367 24.1554 196.024 23.9701C195.701 23.7848 195.256 23.6921 194.69 23.6921C194.125 23.6921 193.66 23.7951 193.296 24.001C192.953 24.1863 192.68 24.4025 192.478 24.6497C192.296 24.8968 192.154 25.1542 192.053 25.4219C191.973 25.669 191.912 25.8543 191.872 25.9778C191.771 26.2661 191.609 26.4618 191.387 26.5647C191.185 26.6471 190.942 26.6883 190.659 26.6883H186.931C186.749 26.6883 186.588 26.6265 186.446 26.5029C186.325 26.3588 186.264 26.1941 186.264 26.0087C186.285 25.1439 186.466 24.2893 186.81 23.445C187.153 22.5801 187.669 21.7976 188.356 21.0975C189.063 20.3974 189.932 19.8311 190.962 19.3987C192.013 18.9662 193.246 18.75 194.66 18.75C195.994 18.75 197.166 18.9559 198.176 19.3678C199.206 19.759 200.065 20.2944 200.752 20.974C201.439 21.6329 201.954 22.4051 202.298 23.2906C202.662 24.1554 202.843 25.0615 202.843 26.0087Z" fill="#2724A1"/>
<path d="M170.372 24.6189C170.594 24.6189 170.786 24.7013 170.948 24.866C171.109 25.0307 171.19 25.2264 171.19 25.4529V28.5726C171.19 28.7991 171.109 28.9947 170.948 29.1595C170.786 29.3242 170.594 29.4066 170.372 29.4066H165.856V39.8468C165.856 40.0733 165.775 40.2689 165.613 40.4337C165.452 40.5984 165.26 40.6808 165.037 40.6808H161.218C160.996 40.6808 160.804 40.5984 160.643 40.4337C160.481 40.2689 160.4 40.0733 160.4 39.8468V29.4066H155.884C155.662 29.4066 155.47 29.3242 155.308 29.1595C155.147 28.9947 155.066 28.7991 155.066 28.5726V25.4529C155.066 25.2264 155.147 25.0307 155.308 24.866C155.47 24.7013 155.662 24.6189 155.884 24.6189H170.372Z" fill="#050505"/>
<path d="M143.414 29.9008L147.627 25.144C147.728 25.041 147.879 24.9278 148.082 24.8042C148.284 24.6807 148.526 24.6189 148.809 24.6189H153.143C153.345 24.6189 153.517 24.691 153.658 24.8351C153.8 24.9793 153.871 25.1543 153.871 25.3602C153.871 25.4632 153.85 25.5558 153.81 25.6382C153.79 25.7 153.699 25.8132 153.537 25.978L148.021 32.4954L154.174 39.3526C154.295 39.4967 154.376 39.61 154.416 39.6924C154.457 39.7541 154.477 39.8365 154.477 39.9395C154.477 40.1454 154.406 40.3204 154.265 40.4646C154.123 40.6087 153.951 40.6808 153.749 40.6808H149.203C148.9 40.6808 148.647 40.6396 148.445 40.5572C148.263 40.4543 148.102 40.3204 147.96 40.1557L143.414 35.09V39.8468C143.414 40.0733 143.333 40.2689 143.171 40.4337C143.01 40.5984 142.818 40.6808 142.596 40.6808H138.777C138.554 40.6808 138.362 40.5984 138.201 40.4337C138.039 40.2689 137.958 40.0733 137.958 39.8468V25.4529C137.958 25.2264 138.039 25.0307 138.201 24.866C138.362 24.7013 138.554 24.6189 138.777 24.6189H142.596C142.818 24.6189 143.01 24.7013 143.171 24.866C143.333 25.0307 143.414 25.2264 143.414 25.4529V29.9008Z" fill="#050505"/>
<path d="M135.103 31.4758C135.123 31.7846 135.133 32.1862 135.133 32.6804C135.133 33.154 135.123 33.5453 135.103 33.8542C135.062 34.8426 134.84 35.7692 134.436 36.6341C134.032 37.499 133.476 38.2609 132.769 38.9198C132.062 39.5582 131.203 40.0627 130.193 40.4334C129.203 40.804 128.091 40.9893 126.859 40.9893C125.626 40.9893 124.505 40.804 123.494 40.4334C122.504 40.0627 121.656 39.5582 120.948 38.9198C120.241 38.2609 119.685 37.499 119.281 36.6341C118.877 35.7692 118.655 34.8426 118.615 33.8542C118.594 33.5453 118.584 33.154 118.584 32.6804C118.584 32.1862 118.594 31.7846 118.615 31.4758C118.635 30.4873 118.847 29.5607 119.251 28.6958C119.655 27.831 120.211 27.0793 120.918 26.441C121.645 25.782 122.504 25.2672 123.494 24.8966C124.505 24.5053 125.626 24.3097 126.859 24.3097C128.091 24.3097 129.203 24.5053 130.193 24.8966C131.203 25.2672 132.062 25.782 132.769 26.441C133.496 27.0793 134.052 27.831 134.436 28.6958C134.84 29.5607 135.062 30.4873 135.103 31.4758ZM124.07 33.6997C124.131 34.4822 124.404 35.1 124.889 35.553C125.394 35.9854 126.05 36.2017 126.859 36.2017C127.667 36.2017 128.313 35.9854 128.798 35.553C129.304 35.1 129.586 34.4822 129.647 33.6997C129.688 33.3908 129.708 33.0408 129.708 32.6495C129.708 32.2583 129.688 31.9082 129.647 31.5993C129.586 30.8168 129.304 30.2093 128.798 29.7769C128.313 29.3239 127.667 29.0974 126.859 29.0974C126.05 29.0974 125.394 29.3239 124.889 29.7769C124.404 30.2093 124.131 30.8168 124.07 31.5993C124.03 31.9082 124.01 32.2583 124.01 32.6495C124.01 33.0408 124.03 33.3908 124.07 33.6997Z" fill="#050505"/>
<path d="M95.5085 44.0787C95.2863 44.0787 95.0943 43.9963 94.9327 43.8316C94.771 43.6668 94.6902 43.4712 94.6902 43.2447V36.5728C94.6902 36.3463 94.771 36.1507 94.9327 35.986C95.0943 35.8212 95.2863 35.7388 95.5085 35.7388H95.6904C96.438 35.7388 96.9533 35.4814 97.2362 34.9666C97.5393 34.4312 97.6908 33.6179 97.6908 32.5265V19.8932C97.6908 19.6667 97.7716 19.471 97.9333 19.3063C98.0949 19.1416 98.2869 19.0592 98.5091 19.0592H113.906C114.128 19.0592 114.32 19.1416 114.482 19.3063C114.644 19.471 114.725 19.6667 114.725 19.8932V35.7388H115.694C115.917 35.7388 116.109 35.8212 116.27 35.986C116.432 36.1507 116.513 36.3463 116.513 36.5728V43.2447C116.513 43.4712 116.432 43.6668 116.27 43.8316C116.109 43.9963 115.917 44.0787 115.694 44.0787H111.724C111.502 44.0787 111.31 43.9963 111.148 43.8316C110.986 43.6668 110.906 43.4712 110.906 43.2447V40.681H100.297V43.2447C100.297 43.4712 100.217 43.6668 100.055 43.8316C99.8933 43.9963 99.7013 44.0787 99.479 44.0787H95.5085ZM109.117 35.7388V24.0013H103.298V32.8662C103.298 33.0722 103.288 33.309 103.268 33.5767C103.268 33.8444 103.247 34.1224 103.207 34.4107C103.167 34.6784 103.106 34.9358 103.025 35.1829C102.965 35.4094 102.874 35.5947 102.752 35.7388H109.117Z" fill="#050505"/>
<path d="M224.602 55.8153C224.71 55.8153 224.803 55.8546 224.882 55.9332C224.961 56.0118 225 56.1051 225 56.2131V63.0795C225 63.1876 224.961 63.2809 224.882 63.3595C224.803 63.4381 224.71 63.4774 224.602 63.4774H223.482C223.374 63.4774 223.281 63.4381 223.202 63.3595C223.124 63.2809 223.084 63.1876 223.084 63.0795V60.501H219.636V63.0795C219.636 63.1876 219.597 63.2809 219.519 63.3595C219.44 63.4381 219.347 63.4774 219.239 63.4774H218.119C218.011 63.4774 217.917 63.443 217.839 63.3742C217.76 63.2957 217.721 63.1974 217.721 63.0795V56.2131C217.721 56.1051 217.76 56.0118 217.839 55.9332C217.917 55.8546 218.011 55.8153 218.119 55.8153H219.239C219.347 55.8153 219.44 55.8546 219.519 55.9332C219.597 56.0118 219.636 56.1051 219.636 56.2131V58.7328H223.084V56.2131C223.084 56.1051 223.124 56.0118 223.202 55.9332C223.281 55.8546 223.374 55.8153 223.482 55.8153H224.602Z" fill="#050505"/>
<path d="M214.174 63.4774C214.066 63.4774 213.973 63.4381 213.894 63.3595C213.816 63.2809 213.776 63.1876 213.776 63.0796V58.9538L210.196 63.3153C210.107 63.4234 209.994 63.4774 209.857 63.4774H208.737C208.629 63.4774 208.536 63.4381 208.457 63.3595C208.378 63.2809 208.339 63.1876 208.339 63.0796V56.2132C208.339 56.1051 208.378 56.0118 208.457 55.9332C208.536 55.8546 208.629 55.8153 208.737 55.8153H209.857C209.965 55.8153 210.058 55.8546 210.137 55.9332C210.215 56.0118 210.255 56.1051 210.255 56.2132V60.3684L213.835 55.9774C213.924 55.8693 214.037 55.8153 214.174 55.8153H215.294C215.402 55.8153 215.495 55.8546 215.574 55.9332C215.652 56.0118 215.692 56.1051 215.692 56.2132V63.0796C215.692 63.1876 215.652 63.2809 215.574 63.3595C215.495 63.4381 215.402 63.4774 215.294 63.4774H214.174ZM212.008 54.7839C211.595 54.7839 211.252 54.7249 210.977 54.6071C210.702 54.4794 210.481 54.3222 210.314 54.1356C210.156 53.9391 210.043 53.723 209.975 53.4872C209.916 53.2515 209.886 53.0157 209.886 52.78C209.886 52.7014 209.911 52.6375 209.96 52.5884C210.009 52.5295 210.078 52.5 210.166 52.5H211.006C211.095 52.5 211.163 52.5295 211.212 52.5884C211.262 52.6375 211.286 52.7014 211.286 52.78C211.286 52.9961 211.34 53.1729 211.448 53.3104C211.556 53.4479 211.743 53.5167 212.008 53.5167C212.273 53.5167 212.46 53.4479 212.568 53.3104C212.676 53.1729 212.73 52.9961 212.73 52.78C212.73 52.7014 212.755 52.6375 212.804 52.5884C212.853 52.5295 212.922 52.5 213.01 52.5H213.85C213.938 52.5 214.007 52.5295 214.056 52.5884C214.105 52.6375 214.13 52.7014 214.13 52.78C214.13 53.0157 214.095 53.2515 214.027 53.4872C213.968 53.723 213.855 53.9391 213.688 54.1356C213.531 54.3222 213.315 54.4794 213.039 54.6071C212.764 54.7249 212.421 54.7839 212.008 54.7839Z" fill="#050505"/>
<path d="M199.921 57.7015C199.96 57.4952 200.049 57.2742 200.186 57.0384C200.334 56.8027 200.535 56.5816 200.79 56.3754C201.056 56.1691 201.375 56.0021 201.748 55.8744C202.131 55.7369 202.573 55.6681 203.074 55.6681C203.575 55.6681 204.027 55.7369 204.43 55.8744C204.833 56.0021 205.176 56.1936 205.461 56.449C205.756 56.7044 205.982 57.0286 206.139 57.4215C206.296 57.8046 206.375 58.2467 206.375 58.7477V63.0797C206.375 63.1877 206.336 63.2811 206.257 63.3596C206.178 63.4382 206.085 63.4775 205.977 63.4775H204.857C204.749 63.4775 204.656 63.4382 204.577 63.3596C204.499 63.2811 204.459 63.1877 204.459 63.0797V62.5934C204.253 62.8783 203.953 63.1239 203.56 63.3302C203.177 63.5266 202.686 63.6249 202.087 63.6249C201.665 63.6249 201.286 63.5708 200.952 63.4628C200.618 63.3449 200.338 63.1828 200.113 62.9765C199.887 62.7702 199.71 62.5296 199.582 62.2545C199.464 61.9697 199.405 61.6602 199.405 61.3262C199.405 60.6484 199.646 60.118 200.127 59.7349C200.609 59.3518 201.252 59.0915 202.058 58.9539L204.459 58.5414C204.459 58.1386 204.327 57.8537 204.061 57.6868C203.796 57.5198 203.467 57.4363 203.074 57.4363C202.829 57.4363 202.637 57.4706 202.5 57.5394C202.362 57.6082 202.229 57.7015 202.102 57.8194C202.013 57.898 201.93 57.952 201.851 57.9814C201.782 58.0109 201.704 58.0257 201.615 58.0257H200.245C200.147 58.0257 200.063 57.9962 199.995 57.9372C199.926 57.8783 199.901 57.7997 199.921 57.7015ZM202.382 61.8567C202.716 61.8567 203.01 61.8125 203.266 61.7241C203.531 61.6258 203.752 61.4981 203.929 61.341C204.106 61.1838 204.238 61.007 204.327 60.8105C204.415 60.6141 204.459 60.4127 204.459 60.2064V60.0591L202.455 60.4127C202.053 60.4814 201.763 60.5846 201.586 60.7221C201.409 60.8498 201.321 61.0266 201.321 61.2526C201.321 61.4589 201.424 61.6111 201.63 61.7093C201.846 61.8076 202.097 61.8567 202.382 61.8567Z" fill="#050505"/>
<path d="M193.611 57.5835V60.7662C193.611 61.6601 193.385 62.3625 192.934 62.8733C192.492 63.3742 191.794 63.6247 190.841 63.6247H190.502C190.394 63.6247 190.301 63.5854 190.222 63.5069C190.144 63.4283 190.104 63.3349 190.104 63.2269V62.2544C190.104 62.1463 190.144 62.053 190.222 61.9744C190.301 61.8959 190.394 61.8566 190.502 61.8566H190.768C191.16 61.8566 191.411 61.7583 191.519 61.5619C191.637 61.3556 191.696 61.0658 191.696 60.6925V56.2131C191.696 56.1051 191.735 56.0118 191.814 55.9332C191.892 55.8546 191.986 55.8153 192.094 55.8153H197.501C197.609 55.8153 197.703 55.8546 197.781 55.9332C197.86 56.0118 197.899 56.1051 197.899 56.2131V63.0795C197.899 63.1876 197.86 63.2809 197.781 63.3595C197.703 63.4381 197.609 63.4774 197.501 63.4774H196.381C196.273 63.4774 196.18 63.4381 196.102 63.3595C196.023 63.2809 195.984 63.1876 195.984 63.0795V57.5835H193.611Z" fill="#050505"/>
<path d="M188.427 55.8153C188.535 55.8153 188.628 55.8546 188.707 55.9332C188.786 56.0118 188.825 56.1051 188.825 56.2131V63.0795C188.825 63.1876 188.786 63.2809 188.707 63.3595C188.628 63.4381 188.535 63.4774 188.427 63.4774H187.307C187.199 63.4774 187.106 63.4381 187.027 63.3595C186.949 63.2809 186.909 63.1876 186.909 63.0795V60.501H183.461V63.0795C183.461 63.1876 183.422 63.2809 183.344 63.3595C183.265 63.4381 183.172 63.4774 183.064 63.4774H181.944C181.836 63.4774 181.742 63.443 181.664 63.3742C181.585 63.2957 181.546 63.1974 181.546 63.0795V56.2131C181.546 56.1051 181.585 56.0118 181.664 55.9332C181.742 55.8546 181.836 55.8153 181.944 55.8153H183.064C183.172 55.8153 183.265 55.8546 183.344 55.9332C183.422 56.0118 183.461 56.1051 183.461 56.2131V58.7328H186.909V56.2131C186.909 56.1051 186.949 56.0118 187.027 55.9332C187.106 55.8546 187.199 55.8153 187.307 55.8153H188.427Z" fill="#050505"/>
<path d="M176.157 55.6681C176.697 55.6681 177.184 55.7516 177.616 55.9186C178.058 56.0856 178.436 56.3164 178.75 56.6111C179.075 56.9058 179.33 57.2496 179.517 57.6425C179.713 58.0355 179.826 58.4579 179.856 58.9097C179.865 58.9981 179.87 59.1111 179.87 59.2486C179.87 59.3862 179.87 59.5237 179.87 59.6612C179.87 59.7987 179.87 59.9363 179.87 60.0738C179.87 60.2015 179.865 60.3095 179.856 60.3979C179.816 60.8498 179.703 61.2722 179.517 61.6651C179.33 62.0581 179.075 62.4019 178.75 62.6966C178.436 62.9814 178.058 63.2074 177.616 63.3744C177.184 63.5414 176.697 63.6249 176.157 63.6249C175.617 63.6249 175.126 63.5414 174.684 63.3744C174.251 63.2074 173.873 62.9814 173.549 62.6966C173.235 62.4019 172.984 62.0581 172.798 61.6651C172.611 61.2722 172.498 60.8498 172.459 60.3979C172.449 60.3095 172.439 60.2015 172.429 60.0738C172.429 59.9363 172.429 59.7987 172.429 59.6612C172.429 59.5237 172.429 59.3862 172.429 59.2486C172.439 59.1111 172.449 58.9981 172.459 58.9097C172.488 58.4579 172.596 58.0355 172.783 57.6425C172.979 57.2496 173.235 56.9058 173.549 56.6111C173.873 56.3164 174.251 56.0856 174.684 55.9186C175.126 55.7516 175.617 55.6681 176.157 55.6681ZM177.94 58.9834C177.911 58.6789 177.837 58.4284 177.719 58.2319C177.611 58.0257 177.473 57.8636 177.306 57.7457C177.139 57.6278 176.958 57.5492 176.761 57.5099C176.565 57.4608 176.363 57.4363 176.157 57.4363C175.951 57.4363 175.749 57.4608 175.553 57.5099C175.357 57.5492 175.175 57.6278 175.008 57.7457C174.841 57.8636 174.698 58.0257 174.58 58.2319C174.472 58.4284 174.404 58.6789 174.374 58.9834C174.364 59.062 174.355 59.1602 174.345 59.2781C174.345 59.396 174.345 59.5188 174.345 59.6465C174.345 59.7742 174.345 59.9019 174.345 60.0296C174.355 60.1475 174.364 60.2408 174.374 60.3095C174.404 60.6141 174.472 60.8695 174.58 61.0757C174.698 61.2722 174.841 61.4294 175.008 61.5473C175.175 61.6651 175.357 61.7486 175.553 61.7978C175.749 61.837 175.951 61.8567 176.157 61.8567C176.363 61.8567 176.565 61.837 176.761 61.7978C176.958 61.7486 177.139 61.6651 177.306 61.5473C177.473 61.4294 177.611 61.2722 177.719 61.0757C177.837 60.8695 177.911 60.6141 177.94 60.3095C177.95 60.2408 177.955 60.1475 177.955 60.0296C177.955 59.9019 177.955 59.7742 177.955 59.6465C177.955 59.5188 177.955 59.396 177.955 59.2781C177.955 59.1602 177.95 59.062 177.94 58.9834Z" fill="#050505"/>
<path d="M167.976 60.501C167.976 60.943 167.892 61.3507 167.725 61.7239C167.568 62.0874 167.347 62.4017 167.062 62.667C166.777 62.9224 166.433 63.1237 166.031 63.2711C165.628 63.4086 165.186 63.4774 164.704 63.4774H161.669C161.561 63.4774 161.468 63.4381 161.389 63.3595C161.311 63.2809 161.271 63.1876 161.271 63.0795V56.2131C161.271 56.1051 161.311 56.0118 161.389 55.9332C161.468 55.8546 161.561 55.8153 161.669 55.8153H162.789C162.897 55.8153 162.99 55.8546 163.069 55.9332C163.147 56.0118 163.187 56.1051 163.187 56.2131V57.5245H164.704C165.186 57.5245 165.628 57.5982 166.031 57.7456C166.433 57.8831 166.777 58.0845 167.062 58.3497C167.347 58.6051 167.568 58.9194 167.725 59.2927C167.892 59.6562 167.976 60.0589 167.976 60.501ZM163.187 61.7092H164.454C164.7 61.7092 164.921 61.6945 165.117 61.665C165.323 61.6257 165.5 61.5619 165.647 61.4735C165.795 61.385 165.908 61.2623 165.986 61.1051C166.065 60.9479 166.104 60.7465 166.104 60.501C166.104 60.2554 166.065 60.054 165.986 59.8968C165.908 59.7397 165.795 59.6169 165.647 59.5285C165.5 59.4401 165.323 59.3811 165.117 59.3516C164.921 59.3124 164.7 59.2927 164.454 59.2927H163.187V61.7092Z" fill="#050505"/>
<path d="M154.947 57.5835V60.7662C154.947 61.6601 154.721 62.3625 154.269 62.8733C153.827 63.3742 153.13 63.6247 152.177 63.6247H151.838C151.73 63.6247 151.637 63.5854 151.558 63.5069C151.479 63.4283 151.44 63.3349 151.44 63.2269V62.2544C151.44 62.1463 151.479 62.053 151.558 61.9744C151.637 61.8959 151.73 61.8566 151.838 61.8566H152.103C152.496 61.8566 152.747 61.7583 152.855 61.5619C152.973 61.3556 153.032 61.0658 153.032 60.6925V56.2131C153.032 56.1051 153.071 56.0118 153.149 55.9332C153.228 55.8546 153.321 55.8153 153.429 55.8153H158.837C158.945 55.8153 159.038 55.8546 159.117 55.9332C159.196 56.0118 159.235 56.1051 159.235 56.2131V63.0795C159.235 63.1876 159.196 63.2809 159.117 63.3595C159.038 63.4381 158.945 63.4774 158.837 63.4774H157.717C157.609 63.4774 157.516 63.4381 157.437 63.3595C157.359 63.2809 157.319 63.1876 157.319 63.0795V57.5835H154.947Z" fill="#050505"/>
<path d="M143.773 57.7015C143.813 57.4952 143.901 57.2742 144.039 57.0384C144.186 56.8027 144.387 56.5816 144.643 56.3754C144.908 56.1691 145.227 56.0021 145.6 55.8744C145.984 55.7369 146.426 55.6681 146.927 55.6681C147.428 55.6681 147.879 55.7369 148.282 55.8744C148.685 56.0021 149.029 56.1936 149.314 56.449C149.608 56.7044 149.834 57.0286 149.991 57.4215C150.149 57.8046 150.227 58.2467 150.227 58.7477V63.0797C150.227 63.1877 150.188 63.2811 150.109 63.3596C150.031 63.4382 149.937 63.4775 149.829 63.4775H148.709C148.601 63.4775 148.508 63.4382 148.429 63.3596C148.351 63.2811 148.312 63.1877 148.312 63.0797V62.5934C148.105 62.8783 147.806 63.1239 147.413 63.3302C147.03 63.5266 146.539 63.6249 145.939 63.6249C145.517 63.6249 145.139 63.5708 144.805 63.4628C144.471 63.3449 144.191 63.1828 143.965 62.9765C143.739 62.7702 143.562 62.5296 143.434 62.2545C143.317 61.9697 143.258 61.6602 143.258 61.3262C143.258 60.6484 143.498 60.118 143.98 59.7349C144.461 59.3518 145.104 59.0915 145.91 58.9539L148.312 58.5414C148.312 58.1386 148.179 57.8537 147.914 57.6868C147.649 57.5198 147.319 57.4363 146.927 57.4363C146.681 57.4363 146.489 57.4706 146.352 57.5394C146.214 57.6082 146.082 57.7015 145.954 57.8194C145.866 57.898 145.782 57.952 145.704 57.9814C145.635 58.0109 145.556 58.0257 145.468 58.0257H144.097C143.999 58.0257 143.916 57.9962 143.847 57.9372C143.778 57.8783 143.754 57.7997 143.773 57.7015ZM146.234 61.8567C146.568 61.8567 146.863 61.8125 147.118 61.7241C147.383 61.6258 147.604 61.4981 147.781 61.341C147.958 61.1838 148.091 61.007 148.179 60.8105C148.267 60.6141 148.312 60.4127 148.312 60.2064V60.0591L146.308 60.4127C145.905 60.4814 145.615 60.5846 145.438 60.7221C145.261 60.8498 145.173 61.0266 145.173 61.2526C145.173 61.4589 145.276 61.6111 145.483 61.7093C145.699 61.8076 145.949 61.8567 146.234 61.8567Z" fill="#050505"/>
<path d="M142.254 55.8153C142.362 55.8153 142.455 55.8546 142.534 55.9332C142.612 56.0118 142.652 56.1051 142.652 56.2131V57.1856C142.652 57.2937 142.612 57.387 142.534 57.4656C142.455 57.5442 142.362 57.5835 142.254 57.5835H139.837V63.0795C139.837 63.1876 139.798 63.2809 139.719 63.3595C139.641 63.4381 139.547 63.4774 139.439 63.4774H138.32C138.212 63.4774 138.118 63.4381 138.04 63.3595C137.961 63.2809 137.922 63.1876 137.922 63.0795V57.5835H135.505C135.397 57.5835 135.304 57.5442 135.225 57.4656C135.147 57.387 135.107 57.2937 135.107 57.1856V56.2131C135.107 56.1051 135.147 56.0118 135.225 55.9332C135.304 55.8546 135.397 55.8153 135.505 55.8153H142.254Z" fill="#050505"/>
<path d="M132.341 63.4774C132.233 63.4774 132.14 63.4381 132.061 63.3595C131.983 63.2809 131.943 63.1876 131.943 63.0795V58.9538L128.363 63.3153C128.275 63.4234 128.162 63.4774 128.024 63.4774H126.904C126.796 63.4774 126.703 63.4381 126.624 63.3595C126.546 63.2809 126.506 63.1876 126.506 63.0795V56.2131C126.506 56.1051 126.546 56.0118 126.624 55.9332C126.703 55.8546 126.796 55.8153 126.904 55.8153H128.024C128.132 55.8153 128.225 55.8546 128.304 55.9332C128.383 56.0118 128.422 56.1051 128.422 56.2131V60.3683L132.002 55.9774C132.091 55.8693 132.204 55.8153 132.341 55.8153H133.461C133.569 55.8153 133.663 55.8546 133.741 55.9332C133.82 56.0118 133.859 56.1051 133.859 56.2131V63.0795C133.859 63.1876 133.82 63.2809 133.741 63.3595C133.663 63.4381 133.569 63.4774 133.461 63.4774H132.341Z" fill="#050505"/>
<path d="M124.078 55.8153C124.186 55.8153 124.279 55.8546 124.358 55.9332C124.436 56.0118 124.476 56.1051 124.476 56.2131V63.0795C124.476 63.1876 124.436 63.2809 124.358 63.3595C124.279 63.4381 124.186 63.4774 124.078 63.4774H122.958C122.85 63.4774 122.756 63.4381 122.678 63.3595C122.599 63.2809 122.56 63.1876 122.56 63.0795V57.5835H119.112V63.0795C119.112 63.1876 119.073 63.2809 118.994 63.3595C118.916 63.4381 118.822 63.4774 118.714 63.4774H117.594C117.486 63.4774 117.393 63.4381 117.314 63.3595C117.236 63.2809 117.197 63.1876 117.197 63.0795V56.2131C117.197 56.1051 117.236 56.0118 117.314 55.9332C117.393 55.8546 117.486 55.8153 117.594 55.8153H124.078Z" fill="#050505"/>
<path d="M110.239 59.1308C110.22 59.2781 110.21 59.45 110.21 59.6465C110.21 59.8429 110.22 60.0148 110.239 60.1622C110.269 60.4667 110.338 60.727 110.446 60.9431C110.554 61.1592 110.686 61.3361 110.844 61.4736C111.011 61.6013 111.192 61.6995 111.389 61.7683C111.585 61.8272 111.787 61.8567 111.993 61.8567C112.238 61.8567 112.445 61.837 112.612 61.7978C112.779 61.7585 112.921 61.7044 113.039 61.6357C113.157 61.5571 113.255 61.4736 113.334 61.3852C113.422 61.2869 113.506 61.1789 113.584 61.061C113.643 60.9726 113.712 60.8842 113.79 60.7958C113.869 60.7074 113.962 60.6632 114.07 60.6632H115.19C115.298 60.6632 115.392 60.7025 115.47 60.7811C115.559 60.8596 115.598 60.953 115.588 61.061C115.578 61.2673 115.505 61.5178 115.367 61.8125C115.23 62.1072 115.013 62.3921 114.719 62.6671C114.434 62.9323 114.066 63.1583 113.614 63.3449C113.162 63.5315 112.622 63.6249 111.993 63.6249C111.453 63.6249 110.966 63.5365 110.534 63.3596C110.102 63.173 109.724 62.9274 109.4 62.6229C109.085 62.3086 108.835 61.95 108.648 61.5473C108.471 61.1347 108.363 60.7025 108.324 60.2506C108.304 60.0738 108.294 59.8773 108.294 59.6612C108.294 59.4451 108.304 59.2437 108.324 59.0571C108.353 58.6052 108.461 58.173 108.648 57.7604C108.835 57.3479 109.085 56.9893 109.4 56.6848C109.714 56.3704 110.087 56.1249 110.519 55.9481C110.961 55.7614 111.453 55.6681 111.993 55.6681C112.622 55.6681 113.162 55.7614 113.614 55.9481C114.066 56.1347 114.434 56.3655 114.719 56.6406C115.013 56.9058 115.23 57.1858 115.367 57.4805C115.505 57.7752 115.578 58.0257 115.588 58.2319C115.598 58.34 115.559 58.4333 115.47 58.5119C115.392 58.5905 115.298 58.6298 115.19 58.6298H114.07C113.962 58.6298 113.869 58.5856 113.79 58.4972C113.712 58.4088 113.643 58.3203 113.584 58.2319C113.506 58.1141 113.422 58.0109 113.334 57.9225C113.255 57.8243 113.157 57.7408 113.039 57.672C112.921 57.5934 112.779 57.5345 112.612 57.4952C112.445 57.4559 112.238 57.4363 111.993 57.4363C111.787 57.4363 111.585 57.4706 111.389 57.5394C111.192 57.5983 111.011 57.6966 110.844 57.8341C110.686 57.9618 110.554 58.1337 110.446 58.3498C110.338 58.5659 110.269 58.8262 110.239 59.1308Z" fill="#050505"/>
<path d="M103.304 55.6681C103.844 55.6681 104.33 55.7516 104.762 55.9186C105.204 56.0856 105.583 56.3164 105.897 56.6111C106.221 56.9058 106.476 57.2496 106.663 57.6425C106.86 58.0355 106.973 58.4579 107.002 58.9097C107.012 58.9981 107.017 59.1111 107.017 59.2486C107.017 59.3862 107.017 59.5237 107.017 59.6612C107.017 59.7987 107.017 59.9363 107.017 60.0738C107.017 60.2015 107.012 60.3095 107.002 60.3979C106.963 60.8498 106.85 61.2722 106.663 61.6651C106.476 62.0581 106.221 62.4019 105.897 62.6966C105.583 62.9814 105.204 63.2074 104.762 63.3744C104.33 63.5414 103.844 63.6249 103.304 63.6249C102.763 63.6249 102.272 63.5414 101.83 63.3744C101.398 63.2074 101.02 62.9814 100.696 62.6966C100.381 62.4019 100.131 62.0581 99.9441 61.6651C99.7574 61.2722 99.6444 60.8498 99.6052 60.3979C99.5953 60.3095 99.5855 60.2015 99.5757 60.0738C99.5757 59.9363 99.5757 59.7987 99.5757 59.6612C99.5757 59.5237 99.5757 59.3862 99.5757 59.2486C99.5855 59.1111 99.5953 58.9981 99.6052 58.9097C99.6346 58.4579 99.7427 58.0355 99.9293 57.6425C100.126 57.2496 100.381 56.9058 100.696 56.6111C101.02 56.3164 101.398 56.0856 101.83 55.9186C102.272 55.7516 102.763 55.6681 103.304 55.6681ZM105.086 58.9834C105.057 58.6789 104.983 58.4284 104.865 58.2319C104.757 58.0257 104.62 57.8636 104.453 57.7457C104.286 57.6278 104.104 57.5492 103.908 57.5099C103.711 57.4608 103.51 57.4363 103.304 57.4363C103.097 57.4363 102.896 57.4608 102.699 57.5099C102.503 57.5492 102.321 57.6278 102.154 57.7457C101.987 57.8636 101.845 58.0257 101.727 58.2319C101.619 58.4284 101.55 58.6789 101.521 58.9834C101.511 59.062 101.501 59.1602 101.491 59.2781C101.491 59.396 101.491 59.5188 101.491 59.6465C101.491 59.7742 101.491 59.9019 101.491 60.0296C101.501 60.1475 101.511 60.2408 101.521 60.3095C101.55 60.6141 101.619 60.8695 101.727 61.0757C101.845 61.2722 101.987 61.4294 102.154 61.5473C102.321 61.6651 102.503 61.7486 102.699 61.7978C102.896 61.837 103.097 61.8567 103.304 61.8567C103.51 61.8567 103.711 61.837 103.908 61.7978C104.104 61.7486 104.286 61.6651 104.453 61.5473C104.62 61.4294 104.757 61.2722 104.865 61.0757C104.983 60.8695 105.057 60.6141 105.086 60.3095C105.096 60.2408 105.101 60.1475 105.101 60.0296C105.101 59.9019 105.101 59.7742 105.101 59.6465C105.101 59.5188 105.101 59.396 105.101 59.2781C105.101 59.1602 105.096 59.062 105.086 58.9834Z" fill="#050505"/>
<path d="M98.4249 55.8153C98.5329 55.8153 98.6263 55.8546 98.7048 55.9332C98.7834 56.0118 98.8227 56.1051 98.8227 56.2131V57.1856C98.8227 57.2937 98.7834 57.387 98.7048 57.4656C98.6263 57.5442 98.5329 57.5835 98.4249 57.5835H94.5349V63.0795C94.5349 63.1876 94.4956 63.2809 94.417 63.3595C94.3384 63.4381 94.2451 63.4774 94.1371 63.4774H93.0172C92.9092 63.4774 92.8158 63.4381 92.7373 63.3595C92.6587 63.2809 92.6194 63.1876 92.6194 63.0795V56.2131C92.6194 56.1051 92.6587 56.0118 92.7373 55.9332C92.8158 55.8546 92.9092 55.8153 93.0172 55.8153H98.4249Z" fill="#050505"/>
</svg>
