<svg width="135px" height="48px" viewBox="0 0 135 48" fill="none" xmlns="http://www.w3.org/2000/svg" transform="rotate(0) scale(1, 1)">
<path d="M14.5175 16.007H1.46696C0.65678 16.007 0 16.6637 0 17.4738V30.5228C0 31.3328 0.65678 31.9895 1.46696 31.9895H14.5175C15.3277 31.9895 15.9845 31.3328 15.9845 30.5228V17.4738C15.9845 16.6637 15.3277 16.007 14.5175 16.007Z" fill="#7d7be0"/>
<path d="M30.5019 0H17.4513C16.6412 0 15.9844 0.656698 15.9844 1.46678V14.5157C15.9844 15.3258 16.6412 15.9825 17.4513 15.9825H30.5019C31.3121 15.9825 31.9689 15.3258 31.9689 14.5157V1.46678C31.9689 0.656698 31.3121 0 30.5019 0Z" fill="#7d7be0"/>
<path d="M30.4743 32.0175H17.4237C16.6136 32.0175 15.9568 32.6742 15.9568 33.4843V46.5332C15.9568 47.3433 16.6136 48 17.4237 48H30.4743C31.2845 48 31.9413 47.3433 31.9413 46.5332V33.4843C31.9413 32.6742 31.2845 32.0175 30.4743 32.0175Z" fill="#7d7be0"/>
<path d="M47.9851 23.0021C47.9745 22.0849 47.7249 21.1864 47.2609 20.3955C46.797 19.6045 46.1348 18.9487 45.34 18.4928C44.476 18.0022 43.5006 17.742 42.5074 17.7372H24.3684C23.3777 17.7372 22.3965 17.7114 21.444 18.0513C19.6022 18.7082 18.1553 20.2959 17.8847 22.2648C17.8025 22.8614 17.8302 23.4685 17.8302 24.0699C17.8302 24.7402 17.8082 25.399 17.9459 26.056C18.3504 27.9798 19.9446 29.5034 21.8141 30.0118C22.692 30.2503 23.5947 30.2101 24.4917 30.2101H40.5527C41.2929 30.2101 42.0398 30.2417 42.779 30.2034C44.7633 30.0999 46.6778 28.9355 47.5136 27.0978C48.1018 25.8051 47.9975 24.3868 47.9851 23.0021ZM32.0073 20.3103H24.99C24.1293 20.3103 24.1293 21.651 24.99 21.651H32.0073V28.8665H29.8929C27.7365 28.8665 25.58 28.8733 23.4226 28.8665C22.0465 28.8618 20.7096 28.3035 19.8843 27.1658C19.0485 26.011 19.169 24.6885 19.169 23.345C19.169 21.7975 19.7657 20.4501 21.1495 19.6505C22.0398 19.1363 22.9837 19.0759 23.9753 19.0759H32.0082L32.0073 20.3103ZM46.6386 25.2516C46.5373 27.026 45.0684 28.4203 43.392 28.7784C42.6528 28.9365 41.8351 28.8675 41.0825 28.8675H33.3471V21.6519H41.1829C42.0436 21.6519 42.0436 20.3113 41.1829 20.3113H33.3471V19.0788H42.5074C44.2555 19.1028 45.9606 20.16 46.4847 21.8865C46.6644 22.4812 46.6453 23.0768 46.6453 23.6897C46.6453 24.2087 46.6673 24.7325 46.6377 25.2516H46.6386Z" fill="#7d7be0"/>
<path d="M130.072 24.4085C129.938 24.4085 129.823 24.3591 129.726 24.2603C129.629 24.1614 129.581 24.0441 129.581 23.9082V22.0178H123.852C123.719 22.0178 123.604 21.9684 123.507 21.8695C123.41 21.7707 123.361 21.6533 123.361 21.5174V19.5529C123.361 19.2317 123.44 18.966 123.598 18.756L129.035 11.7691C129.144 11.6332 129.241 11.5467 129.326 11.5096C129.423 11.4602 129.55 11.4355 129.708 11.4355H132.454C132.587 11.4355 132.703 11.4849 132.8 11.5837C132.897 11.6826 132.945 11.8 132.945 11.9359V19.0525H134.509C134.642 19.0525 134.758 19.1019 134.855 19.2008C134.952 19.2996 135 19.417 135 19.5529V21.5174C135 21.6533 134.952 21.7707 134.855 21.8695C134.758 21.9684 134.642 22.0178 134.509 22.0178H132.945V23.9082C132.945 24.0441 132.897 24.1614 132.8 24.2603C132.703 24.3591 132.587 24.4085 132.454 24.4085H130.072ZM129.672 19.0525V15.6425L127.017 19.0525H129.672Z" fill="#7d7be0"/>
<path d="M121.706 15.6052C121.706 15.9635 121.67 16.3095 121.597 16.6431C121.524 16.9767 121.397 17.3041 121.215 17.6253C121.045 17.9342 120.815 18.2431 120.524 18.552C120.245 18.8609 119.9 19.1697 119.487 19.4786L116.941 21.4431H121.506C121.639 21.4431 121.755 21.4925 121.852 21.5914C121.949 21.6902 121.997 21.8076 121.997 21.9435V23.908C121.997 24.0439 121.949 24.1613 121.852 24.2601C121.755 24.359 121.639 24.4084 121.506 24.4084H111.904C111.771 24.4084 111.656 24.359 111.559 24.2601C111.462 24.1613 111.413 24.0439 111.413 23.908V22.3142C111.413 22.1165 111.449 21.9188 111.522 21.7211C111.607 21.5234 111.746 21.3566 111.94 21.2207L117.378 17.2547C117.802 16.9334 118.069 16.6431 118.178 16.3836C118.287 16.1118 118.342 15.8523 118.342 15.6052C118.342 15.5188 118.324 15.4014 118.287 15.2531C118.263 15.0925 118.196 14.9381 118.087 14.7898C117.978 14.6292 117.82 14.4933 117.614 14.3821C117.42 14.2709 117.154 14.2153 116.814 14.2153C116.475 14.2153 116.196 14.277 115.978 14.4006C115.772 14.5118 115.608 14.6415 115.487 14.7898C115.378 14.9381 115.293 15.0925 115.232 15.2531C115.184 15.4014 115.147 15.5126 115.123 15.5867C115.062 15.7597 114.965 15.8771 114.832 15.9388C114.711 15.9883 114.565 16.013 114.396 16.013H112.159C112.05 16.013 111.953 15.9759 111.868 15.9018C111.795 15.8153 111.759 15.7164 111.759 15.6052C111.771 15.0863 111.88 14.5736 112.086 14.067C112.292 13.5481 112.601 13.0786 113.013 12.6585C113.438 12.2384 113.959 11.8987 114.577 11.6392C115.208 11.3797 115.947 11.25 116.796 11.25C117.596 11.25 118.299 11.3736 118.906 11.6207C119.524 11.8554 120.039 12.1766 120.451 12.5844C120.863 12.9797 121.173 13.4431 121.379 13.9743C121.597 14.4933 121.706 15.0369 121.706 15.6052Z" fill="#7d7be0"/>
<path d="M102.223 14.7713C102.357 14.7713 102.472 14.8207 102.569 14.9196C102.666 15.0184 102.714 15.1358 102.714 15.2717V17.1435C102.714 17.2794 102.666 17.3968 102.569 17.4956C102.472 17.5945 102.357 17.6439 102.223 17.6439H99.5136V23.908C99.5136 24.0439 99.4651 24.1613 99.3681 24.2602C99.2711 24.359 99.1559 24.4084 99.0226 24.4084H96.7312C96.5978 24.4084 96.4827 24.359 96.3857 24.2602C96.2887 24.1613 96.2402 24.0439 96.2402 23.908V17.6439H93.5306C93.3972 17.6439 93.282 17.5945 93.185 17.4956C93.088 17.3968 93.0396 17.2794 93.0396 17.1435V15.2717C93.0396 15.1358 93.088 15.0184 93.185 14.9196C93.282 14.8207 93.3972 14.7713 93.5306 14.7713H102.223Z" fill="#ffffff"/>
<path d="M86.0485 17.9404L88.5763 15.0864C88.6369 15.0246 88.7279 14.9566 88.8491 14.8825C88.9703 14.8084 89.1158 14.7713 89.2856 14.7713H91.8861C92.0073 14.7713 92.1104 14.8145 92.1952 14.901C92.2801 14.9875 92.3225 15.0925 92.3225 15.2161C92.3225 15.2779 92.3104 15.3335 92.2862 15.3829C92.2741 15.42 92.2195 15.4879 92.1225 15.5868L88.8127 19.4972L92.5044 23.6115C92.5771 23.698 92.6256 23.766 92.6499 23.8154C92.6741 23.8524 92.6863 23.9019 92.6863 23.9636C92.6863 24.0872 92.6438 24.1922 92.559 24.2787C92.4741 24.3652 92.371 24.4084 92.2498 24.4084H89.522C89.3401 24.4084 89.1886 24.3837 89.0673 24.3343C88.9582 24.2725 88.8612 24.1922 88.7764 24.0934L86.0485 21.054V23.908C86.0485 24.0439 86 24.1613 85.9031 24.2602C85.8061 24.359 85.6909 24.4084 85.5575 24.4084H83.2662C83.1328 24.4084 83.0176 24.359 82.9206 24.2602C82.8236 24.1613 82.7751 24.0439 82.7751 23.908V15.2717C82.7751 15.1358 82.8236 15.0184 82.9206 14.9196C83.0176 14.8207 83.1328 14.7713 83.2662 14.7713H85.5575C85.6909 14.7713 85.8061 14.8207 85.9031 14.9196C86 15.0184 86.0485 15.1358 86.0485 15.2717V17.9404Z" fill="#ffffff"/>
<path d="M81.0617 18.8855C81.0739 19.0708 81.0799 19.3117 81.0799 19.6082C81.0799 19.8924 81.0739 20.1272 81.0617 20.3125C81.0375 20.9055 80.9041 21.4615 80.6617 21.9805C80.4192 22.4994 80.0858 22.9565 79.6615 23.3519C79.2371 23.7349 78.7219 24.0376 78.1157 24.26C77.5216 24.4824 76.8548 24.5936 76.1153 24.5936C75.3757 24.5936 74.7029 24.4824 74.0967 24.26C73.5026 24.0376 72.9934 23.7349 72.5691 23.3519C72.1448 22.9565 71.8114 22.4994 71.5689 21.9805C71.3264 21.4615 71.1931 20.9055 71.1688 20.3125C71.1567 20.1272 71.1506 19.8924 71.1506 19.6082C71.1506 19.3117 71.1567 19.0708 71.1688 18.8855C71.1809 18.2924 71.3082 17.7364 71.5507 17.2175C71.7932 16.6986 72.1266 16.2476 72.5509 15.8646C72.9874 15.4692 73.5026 15.1603 74.0967 14.9379C74.7029 14.7032 75.3757 14.5858 76.1153 14.5858C76.8548 14.5858 77.5216 14.7032 78.1157 14.9379C78.7219 15.1603 79.2371 15.4692 79.6615 15.8646C80.0979 16.2476 80.4313 16.6986 80.6617 17.2175C80.9041 17.7364 81.0375 18.2924 81.0617 18.8855ZM74.4422 20.2198C74.4786 20.6893 74.6423 21.06 74.9332 21.3318C75.2363 21.5913 75.6303 21.721 76.1153 21.721C76.6002 21.721 76.9882 21.5913 77.2792 21.3318C77.5822 21.06 77.752 20.6893 77.7883 20.2198C77.8126 20.0345 77.8247 19.8245 77.8247 19.5897C77.8247 19.355 77.8126 19.1449 77.7883 18.9596C77.752 18.4901 77.5822 18.1256 77.2792 17.8661C76.9882 17.5943 76.6002 17.4584 76.1153 17.4584C75.6303 17.4584 75.2363 17.5943 74.9332 17.8661C74.6423 18.1256 74.4786 18.4901 74.4422 18.9596C74.418 19.1449 74.4058 19.355 74.4058 19.5897C74.4058 19.8245 74.418 20.0345 74.4422 20.2198Z" fill="#ffffff"/>
<path d="M57.3052 26.4472C57.1719 26.4472 57.0567 26.3977 56.9597 26.2989C56.8627 26.2001 56.8142 26.0827 56.8142 25.9468V21.9437C56.8142 21.8078 56.8627 21.6904 56.9597 21.5915C57.0567 21.4927 57.1719 21.4433 57.3052 21.4433H57.4143C57.8629 21.4433 58.1721 21.2888 58.3418 20.9799C58.5236 20.6587 58.6146 20.1707 58.6146 19.5158V11.9359C58.6146 11.8 58.6631 11.6826 58.7601 11.5837C58.857 11.4849 58.9722 11.4355 59.1056 11.4355H68.3438C68.4772 11.4355 68.5924 11.4849 68.6894 11.5837C68.7863 11.6826 68.8348 11.8 68.8348 11.9359V21.4433H69.4168C69.5501 21.4433 69.6653 21.4927 69.7623 21.5915C69.8593 21.6904 69.9078 21.8078 69.9078 21.9437V25.9468C69.9078 26.0827 69.8593 26.2001 69.7623 26.2989C69.6653 26.3977 69.5501 26.4472 69.4168 26.4472H67.0345C66.9011 26.4472 66.7859 26.3977 66.6889 26.2989C66.592 26.2001 66.5435 26.0827 66.5435 25.9468V24.4085H60.1785V25.9468C60.1785 26.0827 60.13 26.2001 60.033 26.2989C59.9361 26.3977 59.8209 26.4472 59.6875 26.4472H57.3052ZM65.4705 21.4433V14.4008H61.9789V19.7197C61.9789 19.8433 61.9728 19.9853 61.9607 20.146C61.9607 20.3066 61.9486 20.4734 61.9243 20.6464C61.9001 20.807 61.8637 20.9614 61.8152 21.1097C61.7789 21.2456 61.7243 21.3568 61.6516 21.4433H65.4705Z" fill="#ffffff"/>
<path d="M134.761 33.4892C134.826 33.4892 134.882 33.5127 134.929 33.5599C134.977 33.607 135 33.663 135 33.7279V37.8477C135 37.9125 134.977 37.9685 134.929 38.0157C134.882 38.0628 134.826 38.0864 134.761 38.0864H134.09C134.025 38.0864 133.969 38.0628 133.922 38.0157C133.874 37.9685 133.851 37.9125 133.851 37.8477V36.3006H131.782V37.8477C131.782 37.9125 131.759 37.9685 131.711 38.0157C131.664 38.0628 131.608 38.0864 131.543 38.0864H130.872C130.807 38.0864 130.751 38.0658 130.704 38.0245C130.656 37.9774 130.633 37.9184 130.633 37.8477V33.7279C130.633 33.663 130.656 33.607 130.704 33.5599C130.751 33.5127 130.807 33.4892 130.872 33.4892H131.543C131.608 33.4892 131.664 33.5127 131.711 33.5599C131.759 33.607 131.782 33.663 131.782 33.7279V35.2397H133.851V33.7279C133.851 33.663 133.874 33.607 133.922 33.5599C133.969 33.5127 134.025 33.4892 134.09 33.4892H134.761Z" fill="#ffffff"/>
<path d="M128.505 38.0864C128.44 38.0864 128.384 38.0629 128.337 38.0157C128.29 37.9686 128.266 37.9126 128.266 37.8477V35.3723L126.118 37.9892C126.065 38.054 125.997 38.0864 125.914 38.0864H125.242C125.178 38.0864 125.122 38.0629 125.074 38.0157C125.027 37.9686 125.004 37.9126 125.004 37.8477V33.7279C125.004 33.6631 125.027 33.6071 125.074 33.5599C125.122 33.5128 125.178 33.4892 125.242 33.4892H125.914C125.979 33.4892 126.035 33.5128 126.082 33.5599C126.129 33.6071 126.153 33.6631 126.153 33.7279V36.221L128.301 33.5864C128.354 33.5216 128.422 33.4892 128.505 33.4892H129.177C129.241 33.4892 129.297 33.5128 129.345 33.5599C129.392 33.6071 129.415 33.6631 129.415 33.7279V37.8477C129.415 37.9126 129.392 37.9686 129.345 38.0157C129.297 38.0629 129.241 38.0864 129.177 38.0864H128.505ZM127.205 32.8703C126.957 32.8703 126.751 32.835 126.586 32.7642C126.421 32.6876 126.289 32.5933 126.188 32.4813C126.094 32.3635 126.026 32.2338 125.985 32.0923C125.95 31.9509 125.932 31.8094 125.932 31.668C125.932 31.6208 125.947 31.5825 125.976 31.553C126.006 31.5177 126.047 31.5 126.1 31.5H126.604C126.657 31.5 126.698 31.5177 126.728 31.553C126.757 31.5825 126.772 31.6208 126.772 31.668C126.772 31.7976 126.804 31.9037 126.869 31.9862C126.934 32.0688 127.046 32.11 127.205 32.11C127.364 32.11 127.476 32.0688 127.541 31.9862C127.606 31.9037 127.638 31.7976 127.638 31.668C127.638 31.6208 127.653 31.5825 127.682 31.553C127.712 31.5177 127.753 31.5 127.806 31.5H128.31C128.363 31.5 128.404 31.5177 128.434 31.553C128.463 31.5825 128.478 31.6208 128.478 31.668C128.478 31.8094 128.457 31.9509 128.416 32.0923C128.381 32.2338 128.313 32.3635 128.213 32.4813C128.119 32.5933 127.989 32.6876 127.824 32.7642C127.659 32.835 127.453 32.8703 127.205 32.8703Z" fill="#ffffff"/>
<path d="M119.953 34.6209C119.976 34.4971 120.029 34.3645 120.112 34.223C120.2 34.0816 120.321 33.949 120.474 33.8252C120.633 33.7014 120.825 33.6012 121.049 33.5246C121.279 33.4421 121.544 33.4008 121.845 33.4008C122.145 33.4008 122.416 33.4421 122.658 33.5246C122.9 33.6012 123.106 33.7162 123.277 33.8694C123.454 34.0227 123.589 34.2172 123.684 34.4529C123.778 34.6828 123.825 34.948 123.825 35.2486V37.8478C123.825 37.9126 123.801 37.9686 123.754 38.0158C123.707 38.0629 123.651 38.0865 123.586 38.0865H122.914C122.85 38.0865 122.794 38.0629 122.746 38.0158C122.699 37.9686 122.676 37.9126 122.676 37.8478V37.5561C122.552 37.727 122.372 37.8743 122.136 37.9981C121.907 38.116 121.612 38.1749 121.252 38.1749C120.999 38.1749 120.772 38.1425 120.572 38.0777C120.371 38.0069 120.203 37.9097 120.068 37.7859C119.932 37.6621 119.826 37.5177 119.749 37.3527C119.679 37.1818 119.643 36.9961 119.643 36.7957C119.643 36.3891 119.788 36.0708 120.077 35.8409C120.365 35.6111 120.751 35.4549 121.235 35.3724L122.676 35.1248C122.676 34.8832 122.596 34.7122 122.437 34.612C122.278 34.5118 122.08 34.4618 121.845 34.4618C121.697 34.4618 121.582 34.4824 121.5 34.5236C121.417 34.5649 121.338 34.6209 121.261 34.6916C121.208 34.7388 121.158 34.7712 121.111 34.7889C121.07 34.8065 121.022 34.8154 120.969 34.8154H120.147C120.088 34.8154 120.038 34.7977 119.997 34.7623C119.956 34.727 119.941 34.6798 119.953 34.6209ZM121.429 37.114C121.63 37.114 121.806 37.0875 121.96 37.0344C122.119 36.9755 122.251 36.8989 122.357 36.8046C122.464 36.7103 122.543 36.6042 122.596 36.4863C122.649 36.3684 122.676 36.2476 122.676 36.1238V36.0354L121.473 36.2476C121.232 36.2889 121.058 36.3507 120.952 36.4333C120.846 36.5099 120.793 36.616 120.793 36.7515C120.793 36.8753 120.855 36.9667 120.978 37.0256C121.108 37.0845 121.258 37.114 121.429 37.114Z" fill="#ffffff"/>
<path d="M116.167 34.5501V36.4597C116.167 36.996 116.031 37.4175 115.76 37.7239C115.495 38.0245 115.076 38.1748 114.505 38.1748H114.301C114.237 38.1748 114.181 38.1512 114.133 38.1041C114.086 38.0569 114.063 38.001 114.063 37.9361V37.3526C114.063 37.2878 114.086 37.2318 114.133 37.1846C114.181 37.1375 114.237 37.1139 114.301 37.1139H114.461C114.696 37.1139 114.847 37.055 114.911 36.9371C114.982 36.8133 115.018 36.6395 115.018 36.4155V33.7279C115.018 33.663 115.041 33.607 115.088 33.5599C115.135 33.5127 115.191 33.4892 115.256 33.4892H118.501C118.566 33.4892 118.622 33.5127 118.669 33.5599C118.716 33.607 118.74 33.663 118.74 33.7279V37.8477C118.74 37.9125 118.716 37.9685 118.669 38.0157C118.622 38.0628 118.566 38.0864 118.501 38.0864H117.829C117.764 38.0864 117.708 38.0628 117.661 38.0157C117.614 37.9685 117.59 37.9125 117.59 37.8477V34.5501H116.167Z" fill="#ffffff"/>
<path d="M113.056 33.4892C113.121 33.4892 113.177 33.5127 113.224 33.5599C113.272 33.607 113.295 33.663 113.295 33.7279V37.8477C113.295 37.9125 113.272 37.9685 113.224 38.0157C113.177 38.0628 113.121 38.0864 113.056 38.0864H112.385C112.32 38.0864 112.264 38.0628 112.217 38.0157C112.169 37.9685 112.146 37.9125 112.146 37.8477V36.3006H110.077V37.8477C110.077 37.9125 110.053 37.9685 110.006 38.0157C109.959 38.0628 109.903 38.0864 109.838 38.0864H109.166C109.102 38.0864 109.046 38.0658 108.998 38.0245C108.951 37.9774 108.928 37.9184 108.928 37.8477V33.7279C108.928 33.663 108.951 33.607 108.998 33.5599C109.046 33.5127 109.102 33.4892 109.166 33.4892H109.838C109.903 33.4892 109.959 33.5127 110.006 33.5599C110.053 33.607 110.077 33.663 110.077 33.7279V35.2397H112.146V33.7279C112.146 33.663 112.169 33.607 112.217 33.5599C112.264 33.5127 112.32 33.4892 112.385 33.4892H113.056Z" fill="#ffffff"/>
<path d="M105.694 33.4008C106.019 33.4008 106.31 33.4509 106.57 33.5511C106.835 33.6513 107.062 33.7898 107.25 33.9667C107.445 34.1435 107.598 34.3498 107.71 34.5855C107.828 34.8213 107.896 35.0747 107.914 35.3458C107.919 35.3989 107.922 35.4667 107.922 35.5492C107.922 35.6317 107.922 35.7142 107.922 35.7967C107.922 35.8792 107.922 35.9618 107.922 36.0443C107.922 36.1209 107.919 36.1857 107.914 36.2388C107.89 36.5099 107.822 36.7633 107.71 36.9991C107.598 37.2348 107.445 37.4411 107.25 37.6179C107.062 37.7889 106.835 37.9244 106.57 38.0246C106.31 38.1248 106.019 38.1749 105.694 38.1749C105.37 38.1749 105.076 38.1248 104.81 38.0246C104.551 37.9244 104.324 37.7889 104.13 37.6179C103.941 37.4411 103.791 37.2348 103.679 36.9991C103.567 36.7633 103.499 36.5099 103.475 36.2388C103.47 36.1857 103.464 36.1209 103.458 36.0443C103.458 35.9618 103.458 35.8792 103.458 35.7967C103.458 35.7142 103.458 35.6317 103.458 35.5492C103.464 35.4667 103.47 35.3989 103.475 35.3458C103.493 35.0747 103.558 34.8213 103.67 34.5855C103.788 34.3498 103.941 34.1435 104.13 33.9667C104.324 33.7898 104.551 33.6513 104.81 33.5511C105.076 33.4509 105.37 33.4008 105.694 33.4008ZM106.764 35.39C106.747 35.2073 106.702 35.057 106.632 34.9392C106.567 34.8154 106.484 34.7181 106.384 34.6474C106.284 34.5767 106.175 34.5295 106.057 34.506C105.939 34.4765 105.818 34.4618 105.694 34.4618C105.571 34.4618 105.45 34.4765 105.332 34.506C105.214 34.5295 105.105 34.5767 105.005 34.6474C104.905 34.7181 104.819 34.8154 104.749 34.9392C104.684 35.057 104.642 35.2073 104.625 35.39C104.619 35.4372 104.613 35.4961 104.607 35.5669C104.607 35.6376 104.607 35.7113 104.607 35.7879C104.607 35.8645 104.607 35.9411 104.607 36.0177C104.613 36.0885 104.619 36.1445 104.625 36.1857C104.642 36.3684 104.684 36.5217 104.749 36.6454C104.819 36.7633 104.905 36.8576 105.005 36.9284C105.105 36.9991 105.214 37.0492 105.332 37.0786C105.45 37.1022 105.571 37.114 105.694 37.114C105.818 37.114 105.939 37.1022 106.057 37.0786C106.175 37.0492 106.284 36.9991 106.384 36.9284C106.484 36.8576 106.567 36.7633 106.632 36.6454C106.702 36.5217 106.747 36.3684 106.764 36.1857C106.77 36.1445 106.773 36.0885 106.773 36.0177C106.773 35.9411 106.773 35.8645 106.773 35.7879C106.773 35.7113 106.773 35.6376 106.773 35.5669C106.773 35.4961 106.77 35.4372 106.764 35.39Z" fill="#ffffff"/>
<path d="M100.786 36.3006C100.786 36.5658 100.735 36.8104 100.635 37.0344C100.541 37.2524 100.408 37.441 100.237 37.6002C100.066 37.7534 99.8602 37.8742 99.6185 37.9626C99.3769 38.0452 99.1117 38.0864 98.8229 38.0864H97.0016C96.9368 38.0864 96.8808 38.0628 96.8337 38.0157C96.7865 37.9685 96.7629 37.9125 96.7629 37.8477V33.7279C96.7629 33.663 96.7865 33.607 96.8337 33.5599C96.8808 33.5127 96.9368 33.4892 97.0016 33.4892H97.6735C97.7384 33.4892 97.7944 33.5127 97.8415 33.5599C97.8887 33.607 97.9123 33.663 97.9123 33.7279V34.5147H98.8229C99.1117 34.5147 99.3769 34.5589 99.6185 34.6473C99.8602 34.7298 100.066 34.8507 100.237 35.0098C100.408 35.163 100.541 35.3516 100.635 35.5756C100.735 35.7937 100.786 36.0353 100.786 36.3006ZM97.9123 37.0255H98.6726C98.8199 37.0255 98.9525 37.0167 99.0704 36.999C99.1942 36.9754 99.3003 36.9371 99.3887 36.8841C99.4771 36.831 99.5449 36.7573 99.592 36.663C99.6392 36.5687 99.6627 36.4479 99.6627 36.3006C99.6627 36.1532 99.6392 36.0324 99.592 35.9381C99.5449 35.8438 99.4771 35.7701 99.3887 35.7171C99.3003 35.664 99.1942 35.6287 99.0704 35.611C98.9525 35.5874 98.8199 35.5756 98.6726 35.5756H97.9123V37.0255Z" fill="#ffffff"/>
<path d="M92.9684 34.5501V36.4597C92.9684 36.996 92.8328 37.4175 92.5617 37.7239C92.2965 38.0245 91.878 38.1748 91.3063 38.1748H91.103C91.0381 38.1748 90.9821 38.1512 90.935 38.1041C90.8878 38.0569 90.8643 38.001 90.8643 37.9361V37.3526C90.8643 37.2878 90.8878 37.2318 90.935 37.1846C90.9821 37.1375 91.0381 37.1139 91.103 37.1139H91.2621C91.4979 37.1139 91.6481 37.055 91.713 36.9371C91.7837 36.8133 91.8191 36.6395 91.8191 36.4155V33.7279C91.8191 33.663 91.8426 33.607 91.8898 33.5599C91.9369 33.5127 91.9929 33.4892 92.0578 33.4892H95.3024C95.3672 33.4892 95.4232 33.5127 95.4703 33.5599C95.5175 33.607 95.5411 33.663 95.5411 33.7279V37.8477C95.5411 37.9125 95.5175 37.9685 95.4703 38.0157C95.4232 38.0628 95.3672 38.0864 95.3024 38.0864H94.6305C94.5656 38.0864 94.5096 38.0628 94.4625 38.0157C94.4153 37.9685 94.3918 37.9125 94.3918 37.8477V34.5501H92.9684Z" fill="#ffffff"/>
<path d="M86.2643 34.6209C86.2878 34.4971 86.3409 34.3645 86.4234 34.223C86.5118 34.0816 86.6326 33.949 86.7859 33.8252C86.945 33.7014 87.1366 33.6012 87.3605 33.5246C87.5904 33.4421 87.8556 33.4008 88.1562 33.4008C88.4568 33.4008 88.7279 33.4421 88.9696 33.5246C89.2112 33.6012 89.4175 33.7162 89.5884 33.8694C89.7652 34.0227 89.9008 34.2172 89.9951 34.4529C90.0894 34.6828 90.1366 34.948 90.1366 35.2486V37.8478C90.1366 37.9126 90.113 37.9686 90.0658 38.0158C90.0187 38.0629 89.9627 38.0865 89.8979 38.0865H89.2259C89.1611 38.0865 89.1051 38.0629 89.058 38.0158C89.0108 37.9686 88.9872 37.9126 88.9872 37.8478V37.5561C88.8635 37.727 88.6837 37.8743 88.448 37.9981C88.2181 38.116 87.9234 38.1749 87.5639 38.1749C87.3104 38.1749 87.0835 38.1425 86.8831 38.0777C86.6827 38.0069 86.5148 37.9097 86.3792 37.7859C86.2436 37.6621 86.1375 37.5177 86.0609 37.3527C85.9902 37.1818 85.9548 36.9961 85.9548 36.7957C85.9548 36.3891 86.0992 36.0708 86.388 35.8409C86.6768 35.6111 87.0629 35.4549 87.5462 35.3724L88.9872 35.1248C88.9872 34.8832 88.9077 34.7122 88.7485 34.612C88.5894 34.5118 88.392 34.4618 88.1562 34.4618C88.0089 34.4618 87.8939 34.4824 87.8114 34.5236C87.7289 34.5649 87.6493 34.6209 87.5727 34.6916C87.5197 34.7388 87.4696 34.7712 87.4224 34.7889C87.3812 34.8065 87.334 34.8154 87.281 34.8154H86.4588C86.3998 34.8154 86.3497 34.7977 86.3085 34.7623C86.2672 34.727 86.2525 34.6798 86.2643 34.6209ZM87.7407 37.114C87.9411 37.114 88.1179 37.0875 88.2711 37.0344C88.4303 36.9755 88.5629 36.8989 88.669 36.8046C88.7751 36.7103 88.8546 36.6042 88.9077 36.4863C88.9607 36.3684 88.9872 36.2476 88.9872 36.1238V36.0354L87.7849 36.2476C87.5432 36.2889 87.3694 36.3507 87.2633 36.4333C87.1572 36.5099 87.1041 36.616 87.1041 36.7515C87.1041 36.8753 87.166 36.9667 87.2898 37.0256C87.4195 37.0845 87.5698 37.114 87.7407 37.114Z" fill="#ffffff"/>
<path d="M85.3525 33.4892C85.4173 33.4892 85.4733 33.5127 85.5205 33.5599C85.5676 33.607 85.5912 33.663 85.5912 33.7279V34.3114C85.5912 34.3762 85.5676 34.4322 85.5205 34.4793C85.4733 34.5265 85.4173 34.5501 85.3525 34.5501H83.9026V37.8477C83.9026 37.9125 83.879 37.9685 83.8319 38.0157C83.7847 38.0628 83.7287 38.0864 83.6639 38.0864H82.992C82.9272 38.0864 82.8712 38.0628 82.824 38.0157C82.7769 37.9685 82.7533 37.9125 82.7533 37.8477V34.5501H81.3034C81.2386 34.5501 81.1826 34.5265 81.1354 34.4793C81.0883 34.4322 81.0647 34.3762 81.0647 34.3114V33.7279C81.0647 33.663 81.0883 33.607 81.1354 33.5599C81.1826 33.5127 81.2386 33.4892 81.3034 33.4892H85.3525Z" fill="#ffffff"/>
<path d="M79.405 38.0864C79.3402 38.0864 79.2842 38.0628 79.2371 38.0157C79.1899 37.9685 79.1663 37.9125 79.1663 37.8477V35.3723L77.018 37.9892C76.965 38.054 76.8972 38.0864 76.8147 38.0864H76.1428C76.0779 38.0864 76.0219 38.0628 75.9748 38.0157C75.9276 37.9685 75.9041 37.9125 75.9041 37.8477V33.7279C75.9041 33.663 75.9276 33.607 75.9748 33.5599C76.0219 33.5127 76.0779 33.4892 76.1428 33.4892H76.8147C76.8795 33.4892 76.9355 33.5127 76.9826 33.5599C77.0298 33.607 77.0534 33.663 77.0534 33.7279V36.221L79.2017 33.5864C79.2547 33.5216 79.3225 33.4892 79.405 33.4892H80.0769C80.1418 33.4892 80.1978 33.5127 80.2449 33.5599C80.2921 33.607 80.3156 33.663 80.3156 33.7279V37.8477C80.3156 37.9125 80.2921 37.9685 80.2449 38.0157C80.1978 38.0628 80.1418 38.0864 80.0769 38.0864H79.405Z" fill="#ffffff"/>
<path d="M74.4468 33.4892C74.5116 33.4892 74.5676 33.5127 74.6148 33.5599C74.6619 33.607 74.6855 33.663 74.6855 33.7279V37.8477C74.6855 37.9125 74.6619 37.9685 74.6148 38.0157C74.5676 38.0628 74.5116 38.0864 74.4468 38.0864H73.7749C73.7101 38.0864 73.6541 38.0628 73.6069 38.0157C73.5598 37.9685 73.5362 37.9125 73.5362 37.8477V34.5501H71.4674V37.8477C71.4674 37.9125 71.4439 37.9685 71.3967 38.0157C71.3495 38.0628 71.2936 38.0864 71.2287 38.0864H70.5568C70.492 38.0864 70.436 38.0628 70.3888 38.0157C70.3417 37.9685 70.3181 37.9125 70.3181 37.8477V33.7279C70.3181 33.663 70.3417 33.607 70.3888 33.5599C70.436 33.5127 70.492 33.4892 70.5568 33.4892H74.4468Z" fill="#ffffff"/>
<path d="M66.1438 35.4785C66.132 35.5669 66.1261 35.67 66.1261 35.7879C66.1261 35.9058 66.132 36.0089 66.1438 36.0973C66.1615 36.28 66.2027 36.4362 66.2676 36.5659C66.3324 36.6955 66.412 36.8016 66.5063 36.8841C66.6065 36.9608 66.7155 37.0197 66.8334 37.061C66.9513 37.0963 67.0721 37.114 67.1959 37.114C67.3432 37.114 67.467 37.1022 67.5672 37.0786C67.6674 37.0551 67.7528 37.0227 67.8236 36.9814C67.8943 36.9342 67.9532 36.8841 68.0004 36.8311C68.0534 36.7722 68.1035 36.7073 68.1507 36.6366C68.186 36.5836 68.2273 36.5305 68.2744 36.4775C68.3216 36.4244 68.3776 36.3979 68.4424 36.3979H69.1143C69.1792 36.3979 69.2352 36.4215 69.2823 36.4686C69.3354 36.5158 69.3589 36.5718 69.353 36.6366C69.3471 36.7604 69.3029 36.9107 69.2204 37.0875C69.1379 37.2643 69.0082 37.4352 68.8314 37.6003C68.6605 37.7594 68.4395 37.895 68.1684 38.0069C67.8972 38.1189 67.5731 38.1749 67.1959 38.1749C66.8717 38.1749 66.58 38.1219 66.3206 38.0158C66.0613 37.9038 65.8344 37.7564 65.6399 37.5737C65.4513 37.3851 65.301 37.17 65.189 36.9284C65.0829 36.6808 65.0181 36.4215 64.9945 36.1504C64.9827 36.0443 64.9768 35.9264 64.9768 35.7967C64.9768 35.6671 64.9827 35.5462 64.9945 35.4342C65.0122 35.1631 65.077 34.9038 65.189 34.6563C65.301 34.4087 65.4513 34.1936 65.6399 34.0109C65.8285 33.8223 66.0524 33.6749 66.3118 33.5688C66.577 33.4568 66.8717 33.4008 67.1959 33.4008C67.5731 33.4008 67.8972 33.4568 68.1684 33.5688C68.4395 33.6808 68.6605 33.8193 68.8314 33.9843C69.0082 34.1435 69.1379 34.3115 69.2204 34.4883C69.3029 34.6651 69.3471 34.8154 69.353 34.9392C69.3589 35.004 69.3354 35.06 69.2823 35.1071C69.2352 35.1543 69.1792 35.1779 69.1143 35.1779H68.4424C68.3776 35.1779 68.3216 35.1513 68.2744 35.0983C68.2273 35.0452 68.186 34.9922 68.1507 34.9392C68.1035 34.8684 68.0534 34.8065 68.0004 34.7535C67.9532 34.6946 67.8943 34.6445 67.8236 34.6032C67.7528 34.5561 67.6674 34.5207 67.5672 34.4971C67.467 34.4735 67.3432 34.4618 67.1959 34.4618C67.0721 34.4618 66.9513 34.4824 66.8334 34.5236C66.7155 34.559 66.6065 34.6179 66.5063 34.7005C66.412 34.7771 66.3324 34.8802 66.2676 35.0099C66.2027 35.1396 66.1615 35.2957 66.1438 35.4785Z" fill="#ffffff"/>
<path d="M61.9823 33.4008C62.3065 33.4008 62.5983 33.4509 62.8576 33.5511C63.1228 33.6513 63.3497 33.7898 63.5383 33.9667C63.7328 34.1435 63.8861 34.3498 63.9981 34.5855C64.1159 34.8213 64.1837 35.0747 64.2014 35.3458C64.2073 35.3989 64.2102 35.4667 64.2102 35.5492C64.2102 35.6317 64.2102 35.7142 64.2102 35.7967C64.2102 35.8792 64.2102 35.9618 64.2102 36.0443C64.2102 36.1209 64.2073 36.1857 64.2014 36.2388C64.1778 36.5099 64.11 36.7633 63.9981 36.9991C63.8861 37.2348 63.7328 37.4411 63.5383 37.6179C63.3497 37.7889 63.1228 37.9244 62.8576 38.0246C62.5983 38.1248 62.3065 38.1749 61.9823 38.1749C61.6582 38.1749 61.3635 38.1248 61.0983 38.0246C60.8389 37.9244 60.612 37.7889 60.4175 37.6179C60.2289 37.4411 60.0786 37.2348 59.9666 36.9991C59.8546 36.7633 59.7869 36.5099 59.7633 36.2388C59.7574 36.1857 59.7515 36.1209 59.7456 36.0443C59.7456 35.9618 59.7456 35.8792 59.7456 35.7967C59.7456 35.7142 59.7456 35.6317 59.7456 35.5492C59.7515 35.4667 59.7574 35.3989 59.7633 35.3458C59.781 35.0747 59.8458 34.8213 59.9578 34.5855C60.0757 34.3498 60.2289 34.1435 60.4175 33.9667C60.612 33.7898 60.8389 33.6513 61.0983 33.5511C61.3635 33.4509 61.6582 33.4008 61.9823 33.4008ZM63.0521 35.39C63.0344 35.2073 62.9902 35.057 62.9195 34.9392C62.8546 34.8154 62.7721 34.7181 62.6719 34.6474C62.5717 34.5767 62.4627 34.5295 62.3448 34.506C62.2269 34.4765 62.1061 34.4618 61.9823 34.4618C61.8586 34.4618 61.7377 34.4765 61.6199 34.506C61.502 34.5295 61.393 34.5767 61.2928 34.6474C61.1926 34.7181 61.1071 34.8154 61.0364 34.9392C60.9715 35.057 60.9303 35.2073 60.9126 35.39C60.9067 35.4372 60.9008 35.4961 60.8949 35.5669C60.8949 35.6376 60.8949 35.7113 60.8949 35.7879C60.8949 35.8645 60.8949 35.9411 60.8949 36.0177C60.9008 36.0885 60.9067 36.1445 60.9126 36.1857C60.9303 36.3684 60.9715 36.5217 61.0364 36.6454C61.1071 36.7633 61.1926 36.8576 61.2928 36.9284C61.393 36.9991 61.502 37.0492 61.6199 37.0786C61.7377 37.1022 61.8586 37.114 61.9823 37.114C62.1061 37.114 62.2269 37.1022 62.3448 37.0786C62.4627 37.0492 62.5717 36.9991 62.6719 36.9284C62.7721 36.8576 62.8546 36.7633 62.9195 36.6454C62.9902 36.5217 63.0344 36.3684 63.0521 36.1857C63.058 36.1445 63.0609 36.0885 63.0609 36.0177C63.0609 35.9411 63.0609 35.8645 63.0609 35.7879C63.0609 35.7113 63.0609 35.6376 63.0609 35.5669C63.0609 35.4961 63.058 35.4372 63.0521 35.39Z" fill="#ffffff"/>
<path d="M59.0551 33.4892C59.1199 33.4892 59.1759 33.5127 59.2231 33.5599C59.2702 33.607 59.2938 33.663 59.2938 33.7279V34.3114C59.2938 34.3762 59.2702 34.4322 59.2231 34.4793C59.1759 34.5265 59.1199 34.5501 59.0551 34.5501H56.7211V37.8477C56.7211 37.9125 56.6975 37.9685 56.6504 38.0157C56.6032 38.0628 56.5472 38.0864 56.4824 38.0864H55.8105C55.7456 38.0864 55.6897 38.0628 55.6425 38.0157C55.5954 37.9685 55.5718 37.9125 55.5718 37.8477V33.7279C55.5718 33.663 55.5954 33.607 55.6425 33.5599C55.6897 33.5127 55.7456 33.4892 55.8105 33.4892H59.0551Z" fill="#ffffff"/>
</svg>