<svg width="16" height="16" viewBox="0 0 16 16" fill="none" xmlns="http://www.w3.org/2000/svg">
<path d="M6 7.99967C6 7.63148 6.29848 7.33301 6.66667 7.33301H9.33333C9.70152 7.33301 10 7.63148 10 7.99967C10 8.36786 9.70152 8.66634 9.33333 8.66634H6.66667C6.29848 8.66634 6 8.36786 6 7.99967Z" fill="white"/>
<path fill-rule="evenodd" clip-rule="evenodd" d="M0.666667 1.33301C0.298477 1.33301 0 1.63148 0 1.99967V5.33301C0 5.7012 0.298477 5.99967 0.666667 5.99967H1.33333V13.9997C1.33333 14.3679 1.63181 14.6663 2 14.6663H14C14.3682 14.6663 14.6667 14.3679 14.6667 13.9997V5.99967H15.3333C15.7015 5.99967 16 5.7012 16 5.33301V1.99967C16 1.63148 15.7015 1.33301 15.3333 1.33301H0.666667ZM13.3333 5.99967V13.333H2.66667V5.99967H13.3333ZM14.6667 4.66634V2.66634H1.33333V4.66634H14.6667Z" fill="white"/>
<path d="M6 7.99967C6 7.63148 6.29848 7.33301 6.66667 7.33301H9.33333C9.70152 7.33301 10 7.63148 10 7.99967C10 8.36786 9.70152 8.66634 9.33333 8.66634H6.66667C6.29848 8.66634 6 8.36786 6 7.99967Z" fill="white"/>
<path fill-rule="evenodd" clip-rule="evenodd" d="M0.666667 1.33301C0.298477 1.33301 0 1.63148 0 1.99967V5.33301C0 5.7012 0.298477 5.99967 0.666667 5.99967H1.33333V13.9997C1.33333 14.3679 1.63181 14.6663 2 14.6663H14C14.3682 14.6663 14.6667 14.3679 14.6667 13.9997V5.99967H15.3333C15.7015 5.99967 16 5.7012 16 5.33301V1.99967C16 1.63148 15.7015 1.33301 15.3333 1.33301H0.666667ZM13.3333 5.99967V13.333H2.66667V5.99967H13.3333ZM14.6667 4.66634V2.66634H1.33333V4.66634H14.6667Z" fill="white"/>
</svg>
