<svg width="20" height="20" viewBox="0 0 20 20" fill="none" xmlns="http://www.w3.org/2000/svg">
<path d="M9.99992 10.6253C7.35825 10.6253 5.20825 8.47533 5.20825 5.83366C5.20825 3.19199 7.35825 1.04199 9.99992 1.04199C12.6416 1.04199 14.7916 3.19199 14.7916 5.83366C14.7916 8.47533 12.6416 10.6253 9.99992 10.6253ZM9.99992 2.29199C8.04992 2.29199 6.45825 3.88366 6.45825 5.83366C6.45825 7.78366 8.04992 9.37533 9.99992 9.37533C11.9499 9.37533 13.5416 7.78366 13.5416 5.83366C13.5416 3.88366 11.9499 2.29199 9.99992 2.29199Z" fill="white"/>
<path d="M2.8418 18.9583C2.50013 18.9583 2.2168 18.675 2.2168 18.3333C2.2168 14.775 5.70846 11.875 10.0001 11.875C10.8418 11.875 11.6668 11.9834 12.4668 12.2084C12.8001 12.3 12.9918 12.6417 12.9001 12.975C12.8085 13.3083 12.4668 13.5 12.1335 13.4084C11.4501 13.2167 10.7335 13.125 10.0001 13.125C6.40013 13.125 3.4668 15.4583 3.4668 18.3333C3.4668 18.675 3.18346 18.9583 2.8418 18.9583Z" fill="white"/>
<path d="M15.0001 18.9587C14.0167 18.9587 13.0834 18.592 12.3584 17.9337C12.0667 17.6837 11.8084 17.3753 11.6084 17.0337C11.2417 16.4337 11.0417 15.7253 11.0417 15.0003C11.0417 13.9587 11.4417 12.9837 12.1584 12.242C12.9084 11.467 13.9167 11.042 15.0001 11.042C16.1334 11.042 17.2084 11.5253 17.9417 12.3587C18.5917 13.0837 18.9584 14.017 18.9584 15.0003C18.9584 15.317 18.9168 15.6337 18.8334 15.9337C18.7501 16.3087 18.5917 16.7003 18.3751 17.042C17.6834 18.2253 16.3834 18.9587 15.0001 18.9587ZM15.0001 12.292C14.2584 12.292 13.5751 12.5836 13.0584 13.1086C12.5668 13.617 12.2917 14.2837 12.2917 15.0003C12.2917 15.492 12.4251 15.9753 12.6834 16.392C12.8167 16.6253 12.9917 16.8336 13.1917 17.0086C13.6917 17.467 14.3334 17.717 15.0001 17.717C15.9417 17.717 16.8334 17.217 17.3167 16.4087C17.4584 16.1753 17.5667 15.9087 17.6251 15.6504C17.6834 15.4337 17.7084 15.2253 17.7084 15.0087C17.7084 14.342 17.4584 13.7003 17.0084 13.2003C16.5084 12.617 15.7751 12.292 15.0001 12.292Z" fill="white"/>
<path d="M14.1 16.5004C13.9416 16.5004 13.7833 16.4421 13.6583 16.3171C13.4166 16.0754 13.4166 15.6754 13.6583 15.4338L15.4166 13.6754C15.6583 13.4337 16.0583 13.4337 16.3 13.6754C16.5416 13.9171 16.5416 14.3171 16.3 14.5587L14.5416 16.3171C14.4166 16.4421 14.2583 16.5004 14.1 16.5004Z" fill="white"/>
<path d="M15.8834 16.517C15.7251 16.517 15.5668 16.4586 15.4418 16.3336L13.6834 14.5753C13.4418 14.3337 13.4418 13.9337 13.6834 13.692C13.9251 13.4503 14.3251 13.4503 14.5668 13.692L16.3251 15.4503C16.5668 15.692 16.5668 16.092 16.3251 16.3336C16.2001 16.4586 16.0418 16.517 15.8834 16.517Z" fill="white"/>
</svg>
