<svg width="24" height="24" viewBox="0 0 24 24" fill="#000" xmlns="http://www.w3.org/2000/svg">
<path d="M11.1343 14.2502H9.69419C9.27442 14.2502 8.91406 13.8903 8.91406 13.4701C8.91406 13.0499 9.27399 12.69 9.69419 12.69H11.1343V11.37C11.1343 10.9498 11.4942 10.5898 11.9144 10.5898C12.3346 10.5898 12.6946 10.9498 12.6946 11.37V12.69H14.1347C14.5549 12.69 14.9148 13.0499 14.9148 13.4701C14.9148 13.8903 14.5549 14.2502 14.1347 14.2502H12.6946V15.5702C12.6946 15.9904 12.3346 16.3504 11.9144 16.3504C11.4942 16.3504 11.1343 15.9904 11.1343 15.5702V14.2502Z" fill="#000"/>
<path fill-rule="evenodd" clip-rule="evenodd" d="M16.0506 6.87011H20.7306C21.0905 6.87011 21.4508 7.23045 21.5107 7.65023L21.5103 19.4102C21.5103 19.8304 21.1503 20.1904 20.7301 20.1904H3.03013C2.60993 20.1904 2.25 19.8304 2.25 19.4102V7.65023C2.25 7.23004 2.60992 6.87011 3.03013 6.87011H7.71013V5.60989C7.71013 4.58998 8.55056 3.75 9.63034 3.75H14.1303C15.2106 3.75 16.0506 4.58995 16.0506 5.60989V6.87011ZM9.63076 5.31028C9.39052 5.31028 9.21056 5.49025 9.21056 5.67021L9.21096 6.93043H14.551V5.67021C14.551 5.49025 14.3706 5.31028 14.1308 5.31028H9.63076ZM3.75056 18.6302H19.9506L19.9501 8.37H3.75014L3.75056 18.6302Z" fill="#000"/>
</svg>
