<svg width="24" height="24" viewBox="0 0 24 24" fill="none" xmlns="http://www.w3.org/2000/svg">
  <path fill-rule="evenodd" clip-rule="evenodd"
    d="M12.325 4.18758C12.1164 4.10414 11.8836 4.10414 11.675 4.18758L1.67503 8.18758C1.34283 8.32046 1.125 8.64221 1.125 9C1.125 9.35779 1.34283 9.67954 1.67503 9.81242L5.125 11.1924V15.9996C5.125 17.2945 6.1324 18.2867 7.36605 18.9036C8.64063 19.5408 10.3079 19.8746 12 19.8746C13.6921 19.8746 15.3594 19.5408 16.634 18.9036C17.8676 18.2867 18.875 17.2945 18.875 15.9996V11.1924L21.125 10.2924V15C21.125 15.4832 21.5168 15.875 22 15.875C22.4832 15.875 22.875 15.4832 22.875 15V9C22.875 8.64221 22.6572 8.32046 22.325 8.18758L12.325 4.18758ZM6.29472 9.77548C6.31498 9.78273 6.33491 9.79071 6.35445 9.79938L12 12.0576L17.6455 9.79938C17.6651 9.79071 17.685 9.78273 17.7053 9.77548L19.644 9L12 5.9424L4.35601 9L6.29472 9.77548ZM8.14867 17.3383C7.13188 16.8299 6.875 16.296 6.875 15.9996V11.8924L11.675 13.8124C11.8836 13.8959 12.1164 13.8959 12.325 13.8124L17.125 11.8924V15.9996C17.125 16.296 16.8681 16.8299 15.8513 17.3383C14.8755 17.8262 13.4905 18.1246 12 18.1246C10.5095 18.1246 9.12453 17.8262 8.14867 17.3383Z"
    fill="#000" />
</svg>