<svg width="20px" height="20px" viewBox="0 0 20 20" fill="#fff" xmlns="http://www.w3.org/2000/svg">
  <path
    d="M13 0C12.4477 0 12 0.447715 12 1C12 1.55228 12.4477 2 13 2H17C17.2652 2 17.5196 2.10536 17.7071 2.29289C17.8946 2.48043 18 2.73478 18 3V17C18 17.2652 17.8946 17.5196 17.7071 17.7071C17.5196 17.8946 17.2652 18 17 18H13C12.4477 18 12 18.4477 12 19C12 19.5523 12.4477 20 13 20H17C17.7957 20 18.5587 19.6839 19.1213 19.1213C19.6839 18.5587 20 17.7957 20 17V3C20 2.20435 19.6839 1.44129 19.1213 0.87868C18.5587 0.31607 17.7957 0 17 0H13Z"
    fill="#fff" />
  <path
    d="M8.70711 4.29289C8.31658 3.90237 7.68342 3.90237 7.29289 4.29289C6.90237 4.68342 6.90237 5.31658 7.29289 5.70711L10.5858 9H1C0.447715 9 0 9.44771 0 10C0 10.5523 0.447715 11 1 11H10.5858L7.29289 14.2929C6.90237 14.6834 6.90237 15.3166 7.29289 15.7071C7.68342 16.0976 8.31658 16.0976 8.70711 15.7071L13.7064 10.7078L13.7136 10.7005C13.8063 10.6062 13.8764 10.498 13.9241 10.3828C13.9727 10.2657 13.9996 10.1375 14 10.003L14 10L14 9.997C13.9992 9.72537 13.8901 9.47921 13.7136 9.29945L13.7064 9.29218L8.70711 4.29289Z"
    fill="#fff" />
</svg>