<svg width="85" height="25" viewBox="0 0 85 25" fill="none" xmlns="http://www.w3.org/2000/svg">
<g clip-path="url(#clip0_2367_7882)">
<path d="M82 0H3C2.20435 0 1.44129 0.31607 0.87868 0.87868C0.31607 1.44129 0 2.20435 0 3L0 22C0 22.7956 0.31607 23.5587 0.87868 24.1213C1.44129 24.6839 2.20435 25 3 25H82C82.7956 25 83.5587 24.6839 84.1213 24.1213C84.6839 23.5587 85 22.7956 85 22V3C85 2.20435 84.6839 1.44129 84.1213 0.87868C83.5587 0.31607 82.7956 0 82 0Z" fill="#212121"/>
<path fill-rule="evenodd" clip-rule="evenodd" d="M17.9219 11.8691C17.9219 9.85406 19.6359 8.87906 19.7019 8.81406C18.7129 7.44906 17.2639 7.25406 16.7359 7.18906C15.4839 7.05906 14.2329 7.90406 13.6399 7.90406C12.9799 7.90406 11.9919 7.18906 10.9379 7.18906C9.5539 7.18906 8.3019 7.96906 7.5779 9.20406C6.1279 11.6741 7.1819 15.3141 8.5659 17.3291C9.2909 18.3041 10.0809 19.4091 11.1359 19.3441C12.1899 19.2791 12.5859 18.6941 13.8369 18.6941C15.0889 18.6941 15.4189 19.3441 16.5389 19.3441C17.6589 19.3441 18.3839 18.3691 19.0429 17.3941C19.8329 16.2891 20.1629 15.1841 20.1629 15.1191C20.0969 15.0541 17.9219 14.2741 17.9219 11.8691ZM15.8799 5.88906C16.4069 5.17406 16.8029 4.26406 16.7369 3.28906C15.9469 3.35406 14.8919 3.80906 14.3649 4.52406C13.8379 5.10906 13.3759 6.08406 13.5079 6.99406C14.3649 7.05906 15.2879 6.53906 15.8799 5.88906ZM32.9449 19.2141H31.4949L30.7049 16.7441H27.9379L27.2129 19.2141H25.8289L28.5959 10.8291H30.3099L32.9449 19.2141ZM30.4419 15.7041L29.7169 13.4941C29.6509 13.2991 29.5189 12.7141 29.2559 11.9341C29.1899 12.2591 29.0579 12.8441 28.8599 13.4941L28.1349 15.7041H30.4419ZM39.9959 16.1591C39.9959 17.1991 39.7319 17.9791 39.1389 18.6291C38.6119 19.1491 38.0189 19.4091 37.2289 19.4091C36.4379 19.4091 35.8439 19.1491 35.5149 18.5641V21.7491H34.1309V15.2491C34.1309 14.5991 34.1309 13.9491 34.0649 13.2341H35.2519L35.3169 14.2091C35.7789 13.4941 36.4369 13.1041 37.3599 13.1041C38.0849 13.1041 38.6779 13.3641 39.1399 13.9491C39.7319 14.4691 39.9959 15.1841 39.9959 16.1591ZM38.6119 16.1591C38.6119 15.5741 38.4799 15.0541 38.2169 14.7291C37.9529 14.3391 37.5569 14.1441 37.0309 14.1441C36.7009 14.1441 36.3709 14.2741 36.1079 14.4691C35.8373 14.6791 35.6505 14.9787 35.5809 15.3141C35.5149 15.5091 35.5149 15.6391 35.5149 15.7041V16.7441C35.5149 17.1991 35.6469 17.5241 35.9099 17.8491C36.1739 18.1741 36.5699 18.3041 36.9649 18.3041C37.4919 18.3041 37.8869 18.1091 38.1509 17.7191C38.4809 17.3291 38.6119 16.8091 38.6119 16.1591ZM47.0459 16.1591C47.0459 17.1991 46.7829 17.9791 46.1899 18.6291C45.6629 19.1491 45.0699 19.4091 44.2789 19.4091C43.4889 19.4091 42.8949 19.1491 42.5659 18.5641V21.7491H41.1819V15.2491C41.1819 14.5991 41.1819 13.9491 41.1159 13.2341H42.3019L42.3679 14.2091C42.8289 13.4941 43.4879 13.1041 44.4109 13.1041C45.1359 13.1041 45.7289 13.3641 46.1899 13.9491C46.7829 14.4691 47.0459 15.1841 47.0459 16.1591ZM45.6629 16.1591C45.6629 15.5741 45.5309 15.0541 45.2669 14.7291C45.0039 14.3391 44.6079 14.1441 44.0809 14.1441C43.7509 14.1441 43.4219 14.2741 43.1589 14.4691C42.8883 14.6791 42.7015 14.9787 42.6319 15.3141C42.5659 15.5091 42.5659 15.6391 42.5659 15.7041V16.7441C42.5659 17.1991 42.6979 17.5241 42.9609 17.8491C43.2249 18.1741 43.6209 18.3041 44.0149 18.3041C44.5429 18.3041 44.9379 18.1091 45.2019 17.7191C45.5309 17.3291 45.6629 16.8091 45.6629 16.1591ZM54.9529 16.8741C54.9529 17.5891 54.6899 18.1741 54.2289 18.6291C53.7019 19.1491 52.9109 19.3441 51.9229 19.3441C50.9999 19.3441 50.2749 19.1491 49.7479 18.8241L50.0779 17.7191C50.6699 18.0441 51.3289 18.2391 52.0539 18.2391C52.5809 18.2391 52.9769 18.1091 53.2399 17.9141C53.5039 17.6541 53.6359 17.3941 53.6359 17.0041C53.6359 16.6791 53.5039 16.3541 53.3059 16.1591C53.0429 15.8991 52.6469 15.7041 52.1199 15.5091C50.6049 14.9891 49.8799 14.1441 49.8799 13.1041C49.8799 12.3891 50.1429 11.8691 50.6699 11.4141C51.1979 10.9591 51.8569 10.7641 52.7799 10.7641C53.5699 10.7641 54.1629 10.8941 54.6899 11.1541L54.3599 12.2591C53.8999 11.9991 53.3719 11.8691 52.7129 11.8691C52.2519 11.8691 51.8569 11.9991 51.5929 12.1941C51.3949 12.3891 51.2629 12.6491 51.2629 12.9741C51.2629 13.2991 51.3949 13.5591 51.6589 13.8191C51.8569 14.0141 52.3179 14.2091 52.9109 14.4691C53.6359 14.7291 54.1629 15.1191 54.5579 15.5091C54.7559 15.8341 54.9529 16.2891 54.9529 16.8741ZM59.4339 14.2091H57.9199V17.1341C57.9199 17.8491 58.1839 18.2391 58.7099 18.2391C58.9739 18.2391 59.1719 18.2391 59.3039 18.1741L59.3699 19.2141C59.1059 19.3441 58.7769 19.3441 58.3149 19.3441C57.7879 19.3441 57.3269 19.2141 57.0629 18.8891C56.7339 18.5641 56.6029 18.0441 56.6029 17.2641V14.2091H55.6799V13.1691H56.6019V12.0641L57.9199 11.6741V13.1691H59.4359V14.2091H59.4339ZM66.2199 16.1591C66.2199 17.0691 65.9569 17.8491 65.4299 18.4341C64.8369 19.0191 64.1119 19.3441 63.1899 19.3441C62.2669 19.3441 61.5419 19.0191 61.0149 18.4341C60.4879 17.8491 60.2249 17.1341 60.2249 16.2241C60.2249 15.3141 60.4879 14.5341 61.0809 13.9491C61.6079 13.3641 62.3989 13.0391 63.3209 13.0391C64.2439 13.0391 64.9689 13.3641 65.4959 13.9491C65.9569 14.5341 66.2199 15.2491 66.2199 16.1591ZM64.7709 16.2241C64.7709 15.6391 64.6389 15.1841 64.3759 14.7941C64.1119 14.3391 63.6509 14.0791 63.1239 14.0791C62.5969 14.0791 62.1349 14.3391 61.8719 14.7941C61.6079 15.1841 61.4769 15.7041 61.4769 16.2241C61.4769 16.8091 61.6079 17.2641 61.8719 17.6541C62.1359 18.1091 62.5969 18.3691 63.1239 18.3691C63.6509 18.3691 64.0459 18.1091 64.3759 17.6541C64.6389 17.2641 64.7709 16.7441 64.7709 16.2241ZM70.6359 14.3391C70.5039 14.3391 70.3719 14.2741 70.1749 14.2741C69.7129 14.2741 69.3179 14.4691 69.0549 14.7941C68.8382 15.1458 68.7239 15.551 68.7249 15.9641V19.1491H67.3409V14.9891C67.3409 14.2741 67.3409 13.6891 67.2749 13.1041H68.4609L68.5269 14.2741H68.5929C68.7249 13.8841 68.9889 13.5591 69.2529 13.2991C69.5819 13.1041 69.9109 12.9741 70.2399 12.9741H70.5699V14.3391H70.6359ZM76.6979 15.8991C76.6979 16.1591 76.6979 16.3541 76.6319 16.4841H72.5459C72.5459 17.0691 72.7439 17.5241 73.1389 17.8491C73.4689 18.1091 73.9299 18.3041 74.4569 18.3041C75.0499 18.3041 75.6429 18.2391 76.1049 18.0441L76.3019 18.9541C75.7089 19.2141 75.0499 19.3441 74.2589 19.3441C73.3369 19.3441 72.5459 19.0841 72.0189 18.4991C71.4919 17.9791 71.2289 17.1991 71.2289 16.2891C71.2289 15.3791 71.4919 14.5991 71.9529 14.0141C72.4809 13.3641 73.2049 13.0391 74.1279 13.0391C74.9839 13.0391 75.7089 13.3641 76.1049 14.0141C76.5649 14.5341 76.6979 15.1841 76.6979 15.8991ZM75.4459 15.5741C75.4459 15.1841 75.3799 14.8591 75.1819 14.5341C74.9179 14.1441 74.5889 13.9491 74.1279 13.9491C73.6659 13.9491 73.3369 14.1441 73.0729 14.4691C72.8759 14.7291 72.7439 15.1191 72.6779 15.5091H75.4459V15.5741ZM28.3259 8.19306C28.0729 8.19306 27.8389 8.16306 27.6259 8.10506C27.4248 8.05287 27.2361 7.96108 27.0709 7.83506C26.9147 7.71454 26.7898 7.55812 26.7069 7.37906C26.6153 7.17314 26.5709 6.94935 26.5769 6.72406H27.1159C27.1199 6.91106 27.1559 7.07006 27.2259 7.20106C27.2906 7.32623 27.3837 7.43447 27.4979 7.51706C27.6109 7.59706 27.7419 7.65406 27.8929 7.68906C28.0429 7.72506 28.2029 7.74206 28.3729 7.74206C28.5189 7.74206 28.6559 7.72206 28.7829 7.68106C28.9089 7.64006 29.0179 7.58106 29.1109 7.50506C29.2059 7.42901 29.2823 7.33228 29.3343 7.22224C29.3863 7.1122 29.4125 6.99175 29.4109 6.87006C29.4164 6.74039 29.3852 6.61178 29.3209 6.49906C29.2647 6.40538 29.1842 6.32867 29.0879 6.27706C28.9824 6.22149 28.868 6.18461 28.7499 6.16806C28.6151 6.14845 28.4791 6.13876 28.3429 6.13906L28.1419 6.14206C28.0825 6.14322 28.0231 6.14623 27.9639 6.15106V5.69506C28.0109 5.70206 28.0739 5.70606 28.1539 5.70606H28.3439C28.4779 5.70606 28.6009 5.69406 28.7139 5.66806C28.8181 5.6468 28.9169 5.60424 29.0039 5.54306C29.0863 5.48355 29.1518 5.40359 29.1939 5.31106C29.2431 5.20007 29.2667 5.07942 29.2629 4.95806C29.2671 4.84596 29.2412 4.73479 29.1879 4.63606C29.1395 4.55087 29.0704 4.47931 28.9869 4.42806C28.8974 4.37385 28.7993 4.3353 28.6969 4.31406C28.5844 4.29059 28.4698 4.27886 28.3549 4.27906C28.0429 4.27906 27.7979 4.34606 27.6199 4.48106C27.4419 4.61506 27.3369 4.83506 27.3059 5.13906H26.7659C26.7739 4.91706 26.8199 4.72306 26.9059 4.55706C26.9899 4.39106 27.1039 4.25506 27.2459 4.14706C27.3889 4.04006 27.5559 3.95906 27.7469 3.90506C27.9389 3.85006 28.1469 3.82306 28.3729 3.82306C28.5749 3.82306 28.7629 3.84506 28.9389 3.89006C29.1149 3.93506 29.2689 4.00406 29.3989 4.09806C29.5353 4.19489 29.6452 4.32431 29.7188 4.47452C29.7923 4.62474 29.8271 4.79097 29.8199 4.95806C29.8199 5.07106 29.7999 5.17606 29.7599 5.27306C29.6853 5.46505 29.5515 5.62827 29.3779 5.73906C29.2929 5.79506 29.2079 5.83706 29.1199 5.86406V5.88206C29.2589 5.90906 29.3809 5.95506 29.4879 6.01906C29.5949 6.08406 29.6839 6.16106 29.7549 6.25006C29.8249 6.34006 29.8789 6.44006 29.9149 6.54906C29.9509 6.65806 29.9679 6.76906 29.9679 6.88206C29.9568 7.20268 29.822 7.50657 29.5919 7.73006C29.4448 7.87217 29.2716 7.98456 29.0819 8.06106C28.8739 8.14906 28.6219 8.19306 28.3259 8.19306ZM31.4629 8.16306C31.3309 8.16422 31.1993 8.14945 31.0709 8.11906C30.9545 8.09255 30.8447 8.04289 30.7479 7.97306C30.6546 7.90428 30.5791 7.81408 30.5279 7.71006C30.4715 7.58797 30.4441 7.45449 30.4479 7.32006C30.4479 7.15006 30.4779 7.00906 30.5379 6.90006C30.5937 6.79407 30.6739 6.70289 30.7719 6.63406C30.8689 6.56506 30.9789 6.51406 31.1039 6.47906C31.2279 6.44306 31.3559 6.41406 31.4859 6.39106C31.6249 6.36306 31.7559 6.34306 31.8809 6.32906C32.0049 6.31606 32.1149 6.29606 32.2099 6.27106C32.3049 6.24606 32.3799 6.20806 32.4349 6.16006C32.4909 6.11106 32.5179 6.04006 32.5179 5.94606C32.5226 5.85429 32.5011 5.76309 32.4559 5.68306C32.4167 5.61934 32.3615 5.56695 32.2959 5.53106C32.2274 5.49471 32.1528 5.471 32.0759 5.46106C31.9965 5.44911 31.9162 5.44309 31.8359 5.44306C31.6229 5.44306 31.4449 5.48306 31.3029 5.56306C31.1599 5.64306 31.0829 5.79406 31.0709 6.01606H30.5669C30.5693 5.85129 30.61 5.68934 30.6859 5.54306C30.7539 5.41702 30.8518 5.30956 30.9709 5.23006C31.0889 5.15006 31.2239 5.09206 31.3769 5.05706C31.5289 5.02206 31.6919 5.00406 31.8659 5.00406C32.0039 5.00406 32.1419 5.01406 32.2779 5.03406C32.4139 5.05406 32.5379 5.09406 32.6479 5.15406C32.7589 5.21406 32.8479 5.29906 32.9159 5.40806C32.9829 5.51806 33.0159 5.66006 33.0159 5.83506V7.39106C33.0159 7.50806 33.0229 7.59406 33.0369 7.64906C33.0509 7.70306 33.0969 7.73006 33.1769 7.73006C33.2119 7.73006 33.2639 7.72006 33.3309 7.70106V8.08706C33.2189 8.14349 33.0941 8.16969 32.9689 8.16306C32.8551 8.16887 32.7436 8.13014 32.6579 8.05506C32.5799 7.98306 32.5419 7.86506 32.5419 7.70106C32.4039 7.86506 32.2419 7.98306 32.0589 8.05506C31.8688 8.12817 31.6666 8.1648 31.4629 8.16306ZM31.5749 7.73006C31.7409 7.73006 31.8839 7.70806 32.0019 7.66306C32.1087 7.62574 32.2072 7.568 32.2919 7.49306C32.3626 7.43169 32.4195 7.35603 32.4589 7.27106C32.4919 7.20052 32.5099 7.12391 32.5119 7.04606V6.53706C32.4388 6.59194 32.3532 6.62799 32.2629 6.64206C32.1609 6.66206 32.0529 6.67906 31.9399 6.69506L31.5999 6.74206C31.4933 6.75506 31.389 6.78266 31.2899 6.82406C31.2034 6.86028 31.1271 6.9173 31.0679 6.99006C31.0066 7.07615 30.9762 7.18051 30.9819 7.28606C30.9819 7.36806 30.9989 7.43706 31.0319 7.49406C31.0648 7.5489 31.1096 7.59571 31.1629 7.63106C31.2169 7.66606 31.2789 7.69106 31.3499 7.70706C31.4209 7.72306 31.4959 7.73006 31.5749 7.73006ZM33.8109 5.07506H35.9109V5.51306H34.3149V8.09906H33.8109V5.07506ZM36.3309 5.07506H36.8359V5.48406H36.8469C36.928 5.31792 37.0676 5.18758 37.2389 5.11806C37.4169 5.04206 37.6119 5.00406 37.8259 5.00406C38.0629 5.00406 38.2699 5.04706 38.4459 5.13306C38.6209 5.21906 38.7679 5.33506 38.8839 5.48106C39.0009 5.62706 39.0889 5.79606 39.1479 5.98706C39.2079 6.17806 39.2379 6.38106 39.2379 6.59606C39.2379 6.81406 39.2079 7.01806 39.1509 7.20606C39.0939 7.39606 39.0069 7.56206 38.8909 7.70406C38.7717 7.84809 38.6212 7.96302 38.4509 8.04006C38.2759 8.12206 38.0709 8.16306 37.8379 8.16306C37.6573 8.16293 37.4783 8.12937 37.3099 8.06406C37.2178 8.02831 37.131 7.9802 37.0519 7.92106C36.9696 7.85967 36.9 7.78293 36.8469 7.69506H36.8359V9.25106H36.3309V5.07506ZM37.7839 7.73006C37.9539 7.73006 38.0989 7.69706 38.2169 7.63106C38.3322 7.56833 38.4301 7.47797 38.5019 7.36806C38.5729 7.25806 38.6239 7.13406 38.6559 6.99306C38.6879 6.85306 38.7029 6.70906 38.7029 6.56006C38.7029 6.42006 38.6849 6.28306 38.6469 6.14806C38.612 6.01858 38.5537 5.89657 38.4749 5.78806C38.3972 5.68244 38.2958 5.59648 38.1789 5.53706C38.0473 5.47166 37.9018 5.4394 37.7549 5.44306C37.6043 5.43821 37.4551 5.47268 37.3219 5.54306C37.2063 5.60599 37.107 5.69502 37.0319 5.80306C36.9559 5.91006 36.9019 6.03206 36.8679 6.16806C36.7998 6.44608 36.8008 6.73654 36.8709 7.01406C36.9069 7.15206 36.9629 7.27406 37.0409 7.37906C37.1169 7.48506 37.2169 7.56906 37.3399 7.63406C37.4619 7.69806 37.6099 7.73006 37.7839 7.73006ZM40.1439 9.30406C40.0849 9.30406 40.0259 9.30006 39.9669 9.29206C39.9083 9.28501 39.8506 9.2716 39.7949 9.25206V8.79506L39.9399 8.84206C39.9899 8.85806 40.0399 8.86506 40.0909 8.86506C40.1796 8.86935 40.2673 8.84479 40.3409 8.79506C40.4106 8.74002 40.467 8.66995 40.5059 8.59006L40.7139 8.08106L39.4979 5.07506H40.0679L40.9629 7.54906H40.9749L41.8349 5.07506H42.3679L41.0339 8.49706C40.9739 8.64506 40.9169 8.77006 40.8589 8.87106C40.8019 8.97306 40.7389 9.05506 40.6689 9.12006C40.6029 9.18232 40.5245 9.23001 40.4389 9.26006C40.3441 9.29111 40.2437 9.30598 40.1439 9.30406ZM43.9219 8.16406C43.5149 8.16406 43.1969 8.07406 42.9669 7.89406C42.7379 7.71406 42.6139 7.45906 42.5939 7.12806H43.1039C43.1199 7.35006 43.2029 7.51006 43.3529 7.60806C43.5029 7.70506 43.6909 7.75406 43.9159 7.75406C44.1569 7.75406 44.3429 7.70406 44.4739 7.60206C44.5349 7.55803 44.5845 7.49999 44.6184 7.43282C44.6524 7.36565 44.6697 7.29131 44.6689 7.21606C44.6723 7.1493 44.6608 7.08262 44.6352 7.02087C44.6096 6.95911 44.5705 6.90384 44.5209 6.85906C44.4219 6.77306 44.2539 6.73006 44.0169 6.73006H43.6069V6.32606H43.9339C44.1119 6.32606 44.2639 6.29006 44.3909 6.21806C44.5169 6.14606 44.5809 6.02006 44.5809 5.84106C44.5809 5.72806 44.5259 5.62806 44.4169 5.54306C44.3089 5.45706 44.1469 5.41306 43.9339 5.41306C43.8429 5.41306 43.7539 5.42306 43.6639 5.44306C43.5792 5.46071 43.4981 5.49248 43.4239 5.53706C43.353 5.58027 43.2923 5.63825 43.2459 5.70706C43.196 5.78435 43.1655 5.87249 43.1569 5.96406H42.6469C42.6518 5.8 42.6986 5.63992 42.7829 5.49906C42.8585 5.38023 42.9601 5.28006 43.0799 5.20606C43.1989 5.13406 43.3329 5.08206 43.4829 5.05106C43.6329 5.02006 43.7859 5.00406 43.9399 5.00406C44.0979 5.00406 44.2459 5.02006 44.3849 5.05106C44.5229 5.08206 44.6449 5.13206 44.7489 5.20106C44.8506 5.2655 44.9361 5.35239 44.9989 5.45506C45.0589 5.55606 45.0899 5.67706 45.0899 5.81706C45.0968 5.9737 45.043 6.12698 44.9399 6.24506C44.85 6.34717 44.7304 6.41852 44.5979 6.44906V6.46106C44.6722 6.47403 44.7443 6.49761 44.8119 6.53106C44.8819 6.56606 44.9459 6.61406 45.0019 6.67506C45.0569 6.73506 45.1019 6.80906 45.1379 6.89706C45.1729 6.98506 45.1909 7.08706 45.1909 7.20406C45.1949 7.3535 45.1579 7.50118 45.0839 7.63106C45.0136 7.75105 44.9164 7.85306 44.7999 7.92906C44.6752 8.00977 44.538 8.06925 44.3939 8.10506C44.2409 8.14406 44.0839 8.16306 43.9219 8.16306V8.16406ZM45.7959 5.07406H46.2999V7.54406L47.7469 5.07406H48.3939V8.09906H47.8889V5.63006L46.4419 8.09906H45.7959V5.07506V5.07406ZM49.8939 5.51406H48.7969V5.07406H51.4949V5.51406H50.3979V8.09906H49.8939V5.51406ZM53.2029 8.16406C52.9579 8.16406 52.7429 8.12406 52.5589 8.04606C52.3812 7.97292 52.2226 7.8601 52.0952 7.71625C51.9678 7.57239 51.875 7.4013 51.8239 7.21606C51.761 7.00929 51.73 6.79416 51.7319 6.57806C51.7319 6.35206 51.7679 6.14206 51.8389 5.94906C51.9099 5.75606 52.0099 5.58906 52.1389 5.44906C52.2694 5.30522 52.4292 5.19106 52.6076 5.11429C52.786 5.03752 52.9787 4.99993 53.1729 5.00406C53.4459 5.00406 53.6729 5.06006 53.8529 5.17106C54.0329 5.28206 54.1759 5.42406 54.2849 5.59506C54.3939 5.76706 54.4689 5.95406 54.5109 6.15706C54.5519 6.36006 54.5689 6.55306 54.5609 6.73606H52.2659C52.2619 6.86906 52.2779 6.99406 52.3129 7.11306C52.348 7.23174 52.4087 7.34126 52.4908 7.43387C52.5729 7.52649 52.6743 7.59995 52.7879 7.64906C52.9099 7.70306 53.0549 7.73006 53.2209 7.73006C53.4069 7.73817 53.5908 7.68705 53.7459 7.58406C53.8888 7.4755 53.9852 7.31686 54.0159 7.14006H54.5139C54.4459 7.48306 54.2979 7.74006 54.0689 7.90906C53.8389 8.07906 53.5509 8.16306 53.2029 8.16306V8.16406ZM54.0269 6.29706C54.0198 6.18226 53.9927 6.06957 53.9469 5.96406C53.9044 5.86198 53.8422 5.76931 53.7638 5.6914C53.6853 5.61348 53.5923 5.55185 53.4899 5.51006C53.3802 5.46468 53.2626 5.44189 53.1439 5.44306C53.0229 5.44163 52.9029 5.46441 52.7909 5.51006C52.6893 5.55286 52.5975 5.61579 52.5209 5.69506C52.4449 5.77368 52.3845 5.86597 52.3429 5.96706C52.2983 6.07178 52.2723 6.18343 52.2659 6.29706H54.0269ZM56.7309 5.07506H58.1489C58.2829 5.07506 58.4129 5.08506 58.5369 5.10406C58.6619 5.12406 58.7729 5.15906 58.8719 5.21206C58.9719 5.26506 59.0499 5.34006 59.1089 5.43706C59.1689 5.53506 59.1989 5.66006 59.1989 5.81206C59.1989 5.97506 59.1589 6.10806 59.0789 6.20906C58.9907 6.31871 58.8771 6.40521 58.7479 6.46106V6.46706C58.9143 6.49528 59.0648 6.58264 59.1719 6.71306C59.2813 6.855 59.3369 7.03106 59.3289 7.21006C59.3298 7.33237 59.3067 7.45366 59.2609 7.56706C59.2171 7.67299 59.1513 7.76842 59.0679 7.84706C58.9817 7.92724 58.8809 7.99005 58.7709 8.03206C58.6519 8.07773 58.5253 8.10046 58.3979 8.09906H56.7299L56.7309 5.07506ZM58.3029 7.67806C58.4689 7.67806 58.5939 7.63006 58.6799 7.53406C58.766 7.4343 58.8113 7.30576 58.8069 7.17406C58.8093 7.11296 58.7983 7.05207 58.7749 6.99561C58.7514 6.93914 58.7159 6.88846 58.6709 6.84706C58.5799 6.76506 58.4279 6.72406 58.2139 6.72406H57.2299V7.67806H58.3029ZM58.0949 6.31506C58.3129 6.31506 58.4639 6.27506 58.5489 6.19806C58.5912 6.1586 58.6244 6.11047 58.6463 6.05696C58.6682 6.00345 58.6783 5.94584 58.6759 5.88806C58.6791 5.83343 58.6695 5.77881 58.648 5.72849C58.6265 5.67817 58.5936 5.63353 58.5519 5.59806C58.4689 5.53006 58.3169 5.49606 58.0949 5.49606H57.2299V6.31506H58.0949Z" fill="white"/>
</g>
<defs>
<clipPath id="clip0_2367_7882">
<rect width="85" height="25" fill="white"/>
</clipPath>
</defs>
</svg>
