<svg width="84" height="25" viewBox="0 0 84 25" fill="none" xmlns="http://www.w3.org/2000/svg">
<g clip-path="url(#clip0_2367_7875)">
<path d="M81 0H3C2.20435 0 1.44129 0.31607 0.87868 0.87868C0.31607 1.44129 0 2.20435 0 3L0 22C0 22.7956 0.31607 23.5587 0.87868 24.1213C1.44129 24.6839 2.20435 25 3 25H81C81.7956 25 82.5587 24.6839 83.1213 24.1213C83.6839 23.5587 84 22.7956 84 22V3C84 2.20435 83.6839 1.44129 83.1213 0.87868C82.5587 0.31607 81.7956 0 81 0Z" fill="#212121"/>
<path fill-rule="evenodd" clip-rule="evenodd" d="M7 12V6C7 5.32 7.32 5 8 5C7.959 5 8.087 5.064 8 5L21 12C20.872 12.115 21 12.308 21 13C20.872 12.885 21 12.692 21 13L8 20C7.959 20 8.15 19.872 8 20C7.32 20 7 19.68 7 19V12Z" fill="url(#paint0_linear_2367_7875)"/>
<path fill-rule="evenodd" clip-rule="evenodd" d="M14.6701 12.8106L7.14111 5.39062H7.26911C7.59111 5.39062 7.71911 5.45463 7.91311 5.58063L17.0491 10.5276L14.6691 12.8106H14.6701Z" fill="url(#paint1_linear_2367_7875)"/>
<path fill-rule="evenodd" clip-rule="evenodd" d="M16.9859 15.0284L14.6699 12.7444L17.0499 10.3984L20.3319 12.1744C20.5889 12.3004 20.7179 12.4914 20.7179 12.6814C20.7179 12.8714 20.5889 13.0614 20.3319 13.1884L16.9859 15.0284Z" fill="url(#paint2_linear_2367_7875)"/>
<path fill-rule="evenodd" clip-rule="evenodd" d="M7.20605 20.1021L14.6701 12.7461L16.9861 15.0291L7.91405 19.9121C7.72105 20.0391 7.59205 20.1021 7.20605 20.1021Z" fill="url(#paint3_linear_2367_7875)"/>
<path fill-rule="evenodd" clip-rule="evenodd" d="M46.068 17.8148C45.746 17.5608 45.488 17.1168 45.36 16.8628L46.39 16.4188C46.454 16.5458 46.583 16.7368 46.711 16.9268C46.969 17.1798 47.355 17.4338 47.741 17.4338C48.127 17.4338 48.577 17.2438 48.835 16.9268C49.028 16.6098 49.156 16.2928 49.156 15.8488V15.4688C48.384 16.4188 46.776 16.2928 45.875 15.2788C44.91 14.2628 44.91 12.5508 45.875 11.5368C46.84 10.5848 48.255 10.4578 49.092 11.3468V10.9028H50.186V15.6578C50.186 16.8628 49.736 17.5608 49.156 18.0048C48.77 18.3218 48.191 18.4488 47.676 18.4488C47.097 18.3848 46.518 18.1948 46.068 17.8148ZM73.027 18.0678L74.121 15.5318L72.191 11.1558H73.284L74.635 14.2628L75.987 11.1558H77.08L74.12 18.0678H73.027ZM67.815 15.6578C67.493 15.3418 67.365 14.8978 67.365 14.4538C67.365 14.0738 67.494 13.6928 67.751 13.4388C68.201 12.9948 68.845 12.8048 69.552 12.8048C70.002 12.8048 70.389 12.8678 70.711 13.0588C70.711 12.2978 70.067 11.9798 69.552 11.9798C69.102 11.9798 68.652 12.2338 68.459 12.6778L67.493 12.2978C67.687 11.8538 68.201 11.0288 69.488 11.0288C70.132 11.0288 70.775 11.2188 71.161 11.6628C71.547 12.1068 71.676 12.6148 71.676 13.3128V15.9758H70.582V15.5318C70.453 15.7218 70.196 15.8488 70.002 15.9758C69.745 16.1018 69.424 16.1658 69.102 16.1658C68.716 16.1018 68.137 15.9758 67.815 15.6578ZM33.521 13.3758C33.521 12.1068 34.486 10.7118 36.224 10.7118C37.897 10.7118 38.926 12.1068 38.926 13.3758C38.926 14.6438 37.961 16.0388 36.224 16.0388C34.487 16.0388 33.521 14.6438 33.521 13.3758ZM39.312 13.3758C39.312 12.1068 40.277 10.7118 42.014 10.7118C43.687 10.7118 44.717 12.1068 44.717 13.3758C44.717 14.6438 43.752 16.0388 42.014 16.0388C40.342 16.0388 39.312 14.6438 39.312 13.3758ZM26.251 14.7698C24.642 13.1838 24.707 10.5838 26.315 8.93578C26.7031 8.54763 27.1649 8.24106 27.6732 8.03411C28.1816 7.82716 28.7262 7.72403 29.275 7.73078C30.305 7.73078 31.334 8.11078 32.105 8.87178L31.334 9.69678C30.176 8.55478 28.31 8.61878 27.216 9.75978C26.6595 10.3269 26.3477 11.0897 26.3477 11.8843C26.3477 12.6789 26.6595 13.4417 27.216 14.0088C28.374 15.2138 30.304 15.2768 31.462 14.0718C31.849 13.6918 31.977 13.1838 32.042 12.6768H29.339V11.5358H33.135C33.2 11.7888 33.2 12.1058 33.2 12.4228C33.2 13.3748 32.814 14.3258 32.17 14.9598C31.462 15.6568 30.433 16.0378 29.404 16.0378C28.245 15.9748 27.087 15.5938 26.251 14.7698ZM53.467 15.2138C52.502 14.1988 52.502 12.4868 53.467 11.4088C54.432 10.3938 56.041 10.3938 56.942 11.4088C57.263 11.7258 57.456 12.1688 57.649 12.6138L54.111 14.0718C54.304 14.5158 54.754 14.8968 55.397 14.8968C55.977 14.8968 56.362 14.7068 56.749 14.1358L57.714 14.7698C57.585 14.8968 57.456 15.0228 57.392 15.1498C56.298 16.2278 54.432 16.2278 53.467 15.2138ZM60.159 15.9738V8.93778H62.475C63.826 8.93778 64.92 9.88778 64.92 11.0298C64.92 12.1718 63.955 13.1228 62.732 13.1228H61.317V15.9128H60.159V15.9768V15.9738ZM65.563 15.9738V8.93778H66.657V15.9768H65.563V15.9738ZM51.023 15.8478V7.98478H52.18V15.8488H51.022L51.023 15.8478ZM70.646 13.8818C70.389 13.6918 70.003 13.6278 69.616 13.6278C68.845 13.6278 68.394 14.0078 68.394 14.4528C68.394 14.8968 68.844 15.1498 69.295 15.1498C69.939 15.1498 70.646 14.6428 70.646 13.8818ZM37.704 13.3748C37.704 12.6138 37.189 11.7888 36.224 11.7888C35.259 11.7888 34.744 12.6138 34.744 13.3748C34.744 14.1348 35.259 14.9598 36.224 14.9598C37.124 14.9598 37.704 14.1358 37.704 13.3748ZM43.494 13.3748C43.494 12.6138 42.98 11.7888 42.014 11.7888C41.049 11.7888 40.534 12.6138 40.534 13.3748C40.534 14.1348 41.049 14.9598 42.014 14.9598C42.98 14.9598 43.494 14.1358 43.494 13.3748ZM49.221 13.8188C49.221 13.7548 49.221 13.6918 49.285 13.6288V13.0578C49.285 12.9938 49.221 12.8678 49.221 12.8038C49.028 12.1698 48.449 11.7258 47.87 11.7258C47.097 11.7258 46.454 12.4858 46.454 13.3108C46.454 14.1988 47.097 14.8968 47.934 14.8968C48.449 14.9598 48.964 14.5168 49.221 13.8178V13.8188ZM53.918 13.2478L56.298 12.2328C56.2052 12.0582 56.0659 11.9126 55.8957 11.8121C55.7254 11.7115 55.5307 11.6598 55.333 11.6628C54.368 11.7258 53.79 12.7408 53.918 13.2478ZM63.762 11.0918C63.762 10.4578 63.247 10.0138 62.539 10.0138H61.252V12.2338H62.604C63.247 12.2338 63.762 11.7258 63.762 11.0918Z" fill="white"/>
</g>
<defs>
<linearGradient id="paint0_linear_2367_7875" x1="11.134" y1="4.086" x2="15.204" y2="18.686" gradientUnits="userSpaceOnUse">
<stop stop-color="#006884"/>
<stop offset="1" stop-color="#8AD1D0"/>
</linearGradient>
<linearGradient id="paint1_linear_2367_7875" x1="6.39611" y1="6.55963" x2="14.1651" y2="13.9436" gradientUnits="userSpaceOnUse">
<stop stop-color="#24BBB6"/>
<stop offset="1" stop-color="#DBE692"/>
</linearGradient>
<linearGradient id="paint2_linear_2367_7875" x1="17.6899" y1="15.2944" x2="17.6899" y2="10.2534" gradientUnits="userSpaceOnUse">
<stop stop-color="#FCC072"/>
<stop offset="1" stop-color="#F58A5B"/>
</linearGradient>
<linearGradient id="paint3_linear_2367_7875" x1="8.29605" y1="21.4151" x2="13.4961" y2="12.1961" gradientUnits="userSpaceOnUse">
<stop stop-color="#712B8F"/>
<stop offset="1" stop-color="#EA1D27"/>
</linearGradient>
<clipPath id="clip0_2367_7875">
<rect width="84" height="25" fill="white"/>
</clipPath>
</defs>
</svg>
