<svg width="24px" height="24px" viewBox="0 0 24 24" fill="none" xmlns="http://www.w3.org/2000/svg" transform="rotate(0) scale(1, 1)">
<path fill-rule="evenodd" clip-rule="evenodd" d="M7.52931 7.59278C7.52931 10.0357 9.64367 12.1002 12.1876 12.1002L12.2029 12.1011C13.4303 12.1046 14.6089 11.6317 15.4797 10.7863C16.3505 9.94094 16.8422 8.79228 16.8467 7.59278C16.8467 5.06451 14.8197 3 12.1885 3C9.64367 3 7.52931 5.06539 7.52931 7.59278ZM10.2911 7.59366C10.2911 6.5394 11.1106 5.65499 12.1876 5.65499C13.3096 5.65499 14.0867 6.53852 14.0858 7.59366C14.0858 8.64615 13.3096 9.44696 12.1885 9.44696C11.1106 9.44696 10.2911 8.64615 10.2911 7.59366Z" fill="#7d7be0"/>
<path d="M14.0435 15.8517C15.0358 15.5569 15.985 15.1776 16.8035 14.6716C17.4077 14.3337 17.5815 13.4924 17.1925 12.8596C16.8044 12.2278 15.9858 12.0597 15.2952 12.4812C14.3599 13.039 13.2855 13.3341 12.1898 13.3341C11.0942 13.3341 10.0197 13.039 9.08447 12.4812C8.39379 12.0597 7.61756 12.2278 7.18623 12.8596C6.84134 13.4924 6.97011 14.3345 7.61756 14.6716C8.48342 15.1746 9.40993 15.5704 10.3758 15.8499L7.70131 18.336C7.18353 18.8833 7.18353 19.6841 7.70131 20.1901C8.00387 20.4418 8.34876 20.5685 8.65043 20.5685C9.03944 20.5685 9.38523 20.4427 9.64367 20.1901L12.1885 17.6619L14.8197 20.1901C15.251 20.7366 16.1146 20.7366 16.6747 20.1901C17.1925 19.6841 17.1925 18.8833 16.6747 18.3368L14.0435 15.8517Z" fill="#7d7be0"/>
</svg>