<svg width="24px" height="24px" viewBox="0 0 24 24" fill="none" xmlns="http://www.w3.org/2000/svg" transform="rotate(0) scale(1, 1)">
<path fill-rule="evenodd" clip-rule="evenodd" d="M19.8021 14.4118C19.8021 14.4118 21.4191 16.0878 21.8191 16.8634C21.8269 16.8746 21.833 16.887 21.8371 16.9001C22.0001 17.1866 22.0401 17.4112 21.9601 17.5771C21.8251 17.851 21.3681 17.9885 21.2131 18H18.3551C18.1561 18 17.7421 17.9454 17.2381 17.5802C16.8531 17.2979 16.4701 16.833 16.0991 16.3785C15.5451 15.7037 15.0661 15.1181 14.5811 15.1181C14.5198 15.1179 14.459 15.1286 14.4011 15.1496C14.0341 15.2713 13.5681 15.8202 13.5681 17.2821C13.5681 17.7397 13.2241 18 12.9831 18H11.6741C11.2281 18 8.9061 17.8363 6.8471 15.5578C4.32409 12.7682 2.05809 7.17229 2.03609 7.12297C1.89509 6.76089 2.19109 6.56358 2.51109 6.56358H5.39709C5.78409 6.56358 5.91009 6.80917 5.99809 7.02956C6.10009 7.28249 6.4781 8.29421 7.0981 9.43082C8.1021 11.28 8.7191 12.0325 9.2121 12.0325C9.30472 12.0328 9.39578 12.0075 9.4761 11.9591C10.1201 11.5875 10.0001 9.17369 9.9701 8.67623C9.9701 8.57967 9.9691 7.59839 9.6391 7.12402C9.4031 6.78398 9.0011 6.65174 8.7581 6.60346C8.8231 6.50481 8.9611 6.35368 9.1381 6.26447C9.5791 6.03358 10.3761 6 11.1671 6H11.6061C12.4641 6.01259 12.6861 6.07032 12.9981 6.15323C13.6261 6.31065 13.6381 6.7378 13.5831 8.19241C13.5671 8.60801 13.5501 9.07609 13.5501 9.62708C13.5501 9.74462 13.5451 9.87581 13.5451 10.0091C13.5261 10.7553 13.5011 11.5959 14.0031 11.9412C14.0682 11.9838 14.1434 12.0063 14.2201 12.0063C14.3941 12.0063 14.9151 12.0063 16.3281 9.46126C16.9481 8.33724 17.4281 7.01172 17.4611 6.91202C17.4891 6.85639 17.5731 6.70002 17.6751 6.63705C17.7477 6.59653 17.8289 6.57629 17.9111 6.57828H21.3061C21.6761 6.57828 21.9271 6.63705 21.9761 6.78398C22.0581 7.02221 21.9601 7.74952 20.4101 9.94927C20.1491 10.3155 19.9201 10.6325 19.7191 10.9096C18.3141 12.8448 18.3141 12.9425 19.8021 14.4118Z" fill="#7d7be0"/>
</svg>