<svg width="24" height="24" viewBox="0 0 24 24" fill="none" xmlns="http://www.w3.org/2000/svg">
<path fill-rule="evenodd" clip-rule="evenodd" d="M12.125 4C12.4702 4 12.75 4.27982 12.75 4.625V14.6161L15.6831 11.6831C15.9271 11.439 16.3229 11.439 16.5669 11.6831C16.811 11.9271 16.811 12.3229 16.5669 12.5669L12.125 17.0089L7.68306 12.5669C7.43898 12.3229 7.43898 11.9271 7.68306 11.6831C7.92714 11.439 8.32286 11.439 8.56694 11.6831L11.5 14.6161V4.625C11.5 4.27982 11.7798 4 12.125 4ZM5 19.625C5 19.2798 5.27982 19 5.625 19H18.625C18.9702 19 19.25 19.2798 19.25 19.625C19.25 19.9702 18.9702 20.25 18.625 20.25H5.625C5.27982 20.25 5 19.9702 5 19.625Z" fill="black"/>
</svg>
